<svg width="309" height="77" viewBox="0 0 309 77" fill="none" xmlns="http://www.w3.org/2000/svg">
<path d="M12.888 17.0239L14.6081 16.0034L14.0269 15.0239H12.888V17.0239ZM9.648 17.0239V15.0239H7.648V17.0239H9.648ZM9.648 26.6719V28.6719H11.648V26.6719H9.648ZM2.556 26.6719H0.556V28.6719H2.556V26.6719ZM2.556 1.47187V-0.528127H0.556V1.47187H2.556ZM9.648 1.47187H11.648V-0.528127H9.648V1.47187ZM9.648 11.2639H7.648V13.2639H9.648V11.2639ZM13.068 11.2639V13.2639H14.1869L14.7724 12.3103L13.068 11.2639ZM19.08 1.47187V-0.528127H17.9611L17.3756 0.425427L19.08 1.47187ZM26.568 1.47187L28.2465 2.55941L30.247 -0.528127H26.568V1.47187ZM18.684 13.6399L17.0055 12.5523L16.3214 13.6082L16.977 14.682L18.684 13.6399ZM26.64 26.6719V28.6719H30.2042L28.347 25.6297L26.64 26.6719ZM18.612 26.6719L16.8919 27.6924L17.4731 28.6719H18.612V26.6719ZM12.888 15.0239H9.648V19.0239H12.888V15.0239ZM7.648 17.0239V26.6719H11.648V17.0239H7.648ZM9.648 24.6719H2.556V28.6719H9.648V24.6719ZM4.556 26.6719V1.47187H0.556V26.6719H4.556ZM2.556 3.47187H9.648V-0.528127H2.556V3.47187ZM7.648 1.47187V11.2639H11.648V1.47187H7.648ZM9.648 13.2639H13.068V9.26387H9.648V13.2639ZM14.7724 12.3103L20.7844 2.51832L17.3756 0.425427L11.3636 10.2174L14.7724 12.3103ZM19.08 3.47187H26.568V-0.528127H19.08V3.47187ZM24.8895 0.384341L17.0055 12.5523L20.3625 14.7274L28.2465 2.55941L24.8895 0.384341ZM16.977 14.682L24.933 27.714L28.347 25.6297L20.391 12.5977L16.977 14.682ZM26.64 24.6719H18.612V28.6719H26.64V24.6719ZM20.3321 25.6514L14.6081 16.0034L11.1679 18.0444L16.8919 27.6924L20.3321 25.6514ZM49.3169 21.7759L51.171 21.026L50.6654 19.7759H49.3169V21.7759ZM38.6609 21.7759V19.7759H37.3124L36.8068 21.026L38.6609 21.7759ZM36.6809 26.6719V28.6719H38.0294L38.535 27.4217L36.6809 26.6719ZM29.4089 26.6719L27.5792 25.8642L26.3399 28.6719H29.4089V26.6719ZM40.5329 1.47187V-0.528127H39.2296L38.7032 0.664207L40.5329 1.47187ZM47.5529 1.47187L49.3816 0.662021L48.8545 -0.528127H47.5529V1.47187ZM58.7129 26.6719V28.6719H61.786L60.5416 25.862L58.7129 26.6719ZM51.2969 26.6719L49.4428 27.4217L49.9484 28.6719H51.2969V26.6719ZM47.2289 16.5199V18.5199H50.1879L49.0847 15.7742L47.2289 16.5199ZM43.9889 8.45587L45.8447 7.71024L43.9889 3.09133L42.1331 7.71024L43.9889 8.45587ZM40.7489 16.5199L38.8931 15.7742L37.7899 18.5199H40.7489V16.5199ZM49.3169 19.7759H38.6609V23.7759H49.3169V19.7759ZM36.8068 21.026L34.8268 25.922L38.535 27.4217L40.515 22.5257L36.8068 21.026ZM36.6809 24.6719H29.4089V28.6719H36.6809V24.6719ZM31.2386 27.4795L42.3626 2.27954L38.7032 0.664207L27.5792 25.8642L31.2386 27.4795ZM40.5329 3.47187H47.5529V-0.528127H40.5329V3.47187ZM45.7242 2.28173L56.8842 27.4817L60.5416 25.862L49.3816 0.662021L45.7242 2.28173ZM58.7129 24.6719H51.2969V28.6719H58.7129V24.6719ZM53.151 25.922L51.171 21.026L47.4628 22.5257L49.4428 27.4217L53.151 25.922ZM49.0847 15.7742L45.8447 7.71024L42.1331 9.20151L45.3731 17.2655L49.0847 15.7742ZM42.1331 7.71024L38.8931 15.7742L42.6047 17.2655L45.8447 9.20151L42.1331 7.71024ZM40.7489 18.5199H47.2289V14.5199H40.7489V18.5199ZM84.2392 7.12387V9.12387H86.2392V7.12387H84.2392ZM76.5352 7.12387V5.12387H74.5352V7.12387H76.5352ZM76.5352 26.6719V28.6719H78.5352V26.6719H76.5352ZM69.5152 26.6719H67.5152V28.6719H69.5152V26.6719ZM69.5152 7.12387H71.5152V5.12387H69.5152V7.12387ZM61.7752 7.12387H59.7752V9.12387H61.7752V7.12387ZM61.7752 1.47187V-0.528127H59.7752V1.47187H61.7752ZM84.2392 1.47187H86.2392V-0.528127H84.2392V1.47187ZM84.2392 5.12387H76.5352V9.12387H84.2392V5.12387ZM74.5352 7.12387V26.6719H78.5352V7.12387H74.5352ZM76.5352 24.6719H69.5152V28.6719H76.5352V24.6719ZM71.5152 26.6719V7.12387H67.5152V26.6719H71.5152ZM69.5152 5.12387H61.7752V9.12387H69.5152V5.12387ZM63.7752 7.12387V1.47187H59.7752V7.12387H63.7752ZM61.7752 3.47187H84.2392V-0.528127H61.7752V3.47187ZM82.2392 1.47187V7.12387H86.2392V1.47187H82.2392ZM111.357 21.1639H113.357V19.1639H111.357V21.1639ZM111.357 26.6719V28.6719H113.357V26.6719H111.357ZM91.125 26.6719H89.125V28.6719H91.125V26.6719ZM91.125 1.47187V-0.528127H89.125V1.47187H91.125ZM110.889 1.47187H112.889V-0.528127H110.889V1.47187ZM110.889 6.97987V8.97987H112.889V6.97987H110.889ZM98.181 6.97987V4.97987H96.181V6.97987H98.181ZM98.181 11.2279H96.181V13.2279H98.181V11.2279ZM109.377 11.2279H111.377V9.22787H109.377V11.2279ZM109.377 16.5559V18.5559H111.377V16.5559H109.377ZM98.181 16.5559V14.5559H96.181V16.5559H98.181ZM98.181 21.1639H96.181V23.1639H98.181V21.1639ZM109.357 21.1639V26.6719H113.357V21.1639H109.357ZM111.357 24.6719H91.125V28.6719H111.357V24.6719ZM93.125 26.6719V1.47187H89.125V26.6719H93.125ZM91.125 3.47187H110.889V-0.528127H91.125V3.47187ZM108.889 1.47187V6.97987H112.889V1.47187H108.889ZM110.889 4.97987H98.181V8.97987H110.889V4.97987ZM96.181 6.97987V11.2279H100.181V6.97987H96.181ZM98.181 13.2279H109.377V9.22787H98.181V13.2279ZM107.377 11.2279V16.5559H111.377V11.2279H107.377ZM109.377 14.5559H98.181V18.5559H109.377V14.5559ZM96.181 16.5559V21.1639H100.181V16.5559H96.181ZM98.181 23.1639H111.357V19.1639H98.181V23.1639ZM137.45 7.12387V9.12387H139.437L139.45 7.13661L137.45 7.12387ZM126.038 7.12387V5.12387H124.038V7.12387H126.038ZM126.038 26.6719V28.6719H128.038V26.6719H126.038ZM119.018 26.6719H117.018V28.6719H119.018V26.6719ZM119.018 1.47187V-0.528127H117.018V1.47187H119.018ZM137.486 1.47187L139.486 1.48461L139.499 -0.528127H137.486V1.47187ZM137.45 5.12387H126.038V9.12387H137.45V5.12387ZM124.038 7.12387V26.6719H128.038V7.12387H124.038ZM126.038 24.6719H119.018V28.6719H126.038V24.6719ZM121.018 26.6719V1.47187H117.018V26.6719H121.018ZM119.018 3.47187H137.486V-0.528127H119.018V3.47187ZM135.486 1.45914L135.45 7.11114L139.45 7.13661L139.486 1.48461L135.486 1.45914ZM147.279 25.4839L146.336 27.248L146.345 27.2524L147.279 25.4839ZM142.275 20.8039L140.561 21.8359L140.566 21.8434L140.571 21.8509L142.275 20.8039ZM142.275 7.33988L140.571 6.29283L140.566 6.30032L140.561 6.30785L142.275 7.33988ZM147.279 2.65987L146.345 0.891312L146.336 0.895722L147.279 2.65987ZM161.643 2.65987L160.7 4.42404L160.709 4.42841L161.643 2.65987ZM166.647 7.33988L164.933 8.3719L164.938 8.37943L164.943 8.38692L166.647 7.33988ZM166.647 20.8039L164.943 19.7568L164.938 19.7643L164.933 19.7718L166.647 20.8039ZM161.643 25.4839L160.709 23.7153L160.7 23.7197L161.643 25.4839ZM157.935 20.3719L158.94 22.1009L157.935 20.3719ZM160.383 17.8519L162.131 18.8232L162.135 18.8151L162.14 18.8069L160.383 17.8519ZM160.383 10.3279L158.625 11.2829L158.63 11.2911L158.634 11.2992L160.383 10.3279ZM157.935 7.77187L158.94 6.04286V6.04286L157.935 7.77187ZM151.023 7.77187L150.017 6.04286V6.04286L151.023 7.77187ZM148.575 10.3279L150.323 11.2992L150.327 11.2911L150.332 11.2829L148.575 10.3279ZM148.575 17.8519L146.817 18.8069L146.822 18.8151L146.826 18.8232L148.575 17.8519ZM151.023 20.3719L152.028 18.6429L151.023 20.3719ZM154.479 25.1759C152.106 25.1759 150.032 24.6762 148.212 23.7153L146.345 27.2524C148.797 28.5476 151.523 29.1759 154.479 29.1759V25.1759ZM148.221 23.7197C146.414 22.7547 145.012 21.4389 143.979 19.7568L140.571 21.8509C141.985 24.1529 143.919 25.957 146.336 27.248L148.221 23.7197ZM143.988 19.7718C142.989 18.1143 142.475 16.2319 142.475 14.0719H138.475C138.475 16.9039 139.16 19.5095 140.561 21.8359L143.988 19.7718ZM142.475 14.0719C142.475 11.9119 142.989 10.0295 143.988 8.3719L140.561 6.30785C139.16 8.63426 138.475 11.2399 138.475 14.0719H142.475ZM143.979 8.38692C145.012 6.70487 146.414 5.38904 148.221 4.42402L146.336 0.895722C143.919 2.1867 141.985 3.99088 140.571 6.29283L143.979 8.38692ZM148.212 4.42841C150.032 3.46759 152.106 2.96787 154.479 2.96787V-1.03213C151.523 -1.03213 148.797 -0.403845 146.345 0.891332L148.212 4.42841ZM154.479 2.96787C156.852 2.96787 158.91 3.46769 160.7 4.42402L162.585 0.895722C160.151 -0.40394 157.434 -1.03213 154.479 -1.03213V2.96787ZM160.709 4.42841C162.536 5.3933 163.929 6.70416 164.933 8.3719L168.36 6.30785C166.964 3.99159 165.021 2.18245 162.576 0.891332L160.709 4.42841ZM164.943 8.38692C165.96 10.0425 166.483 11.9195 166.483 14.0719H170.483C170.483 11.2322 169.781 8.62124 168.351 6.29283L164.943 8.38692ZM166.483 14.0719C166.483 16.2242 165.96 18.1012 164.943 19.7568L168.351 21.8509C169.781 19.5225 170.483 16.9115 170.483 14.0719H166.483ZM164.933 19.7718C163.929 21.4396 162.536 22.7504 160.709 23.7153L162.576 27.2524C165.021 25.9613 166.964 24.1522 168.36 21.8359L164.933 19.7718ZM160.7 23.7197C158.91 24.6761 156.852 25.1759 154.479 25.1759V29.1759C157.434 29.1759 160.151 28.5477 162.585 27.248L160.7 23.7197ZM154.479 23.2719C156.08 23.2719 157.582 22.8901 158.94 22.1009L156.929 18.6429C156.223 19.0537 155.421 19.2719 154.479 19.2719V23.2719ZM158.94 22.1009C160.294 21.3133 161.362 20.2065 162.131 18.8232L158.634 16.8806C158.203 17.6572 157.639 18.2304 156.929 18.6429L158.94 22.1009ZM162.14 18.8069C162.918 17.3742 163.283 15.7785 163.283 14.0719H159.283C159.283 15.1972 159.047 16.1215 158.625 16.8968L162.14 18.8069ZM163.283 14.0719C163.283 12.3662 162.919 10.7747 162.131 9.35659L158.634 11.2992C159.046 12.041 159.283 12.9455 159.283 14.0719H163.283ZM162.14 9.37285C161.374 7.96451 160.306 6.83694 158.94 6.04286L156.929 9.50089C157.627 9.90681 158.191 10.4832 158.625 11.2829L162.14 9.37285ZM158.94 6.04286C157.582 5.25368 156.08 4.87187 154.479 4.87187V8.87187C155.421 8.87187 156.223 9.09007 156.929 9.50089L158.94 6.04286ZM154.479 4.87187C152.877 4.87187 151.375 5.25368 150.017 6.04286L152.028 9.50089C152.734 9.09007 153.536 8.87187 154.479 8.87187V4.87187ZM150.017 6.04286C148.651 6.83694 147.583 7.96451 146.817 9.37285L150.332 11.2829C150.766 10.4832 151.33 9.90681 152.028 9.50089L150.017 6.04286ZM146.826 9.35659C146.038 10.7747 145.675 12.3662 145.675 14.0719H149.675C149.675 12.9455 149.911 12.041 150.323 11.2992L146.826 9.35659ZM145.675 14.0719C145.675 15.7785 146.039 17.3742 146.817 18.8069L150.332 16.8968C149.91 16.1215 149.675 15.1972 149.675 14.0719H145.675ZM146.826 18.8232C147.595 20.2065 148.663 21.3133 150.017 22.1009L152.028 18.6429C151.318 18.2304 150.754 17.6572 150.323 16.8806L146.826 18.8232ZM150.017 22.1009C151.375 22.8901 152.877 23.2719 154.479 23.2719V19.2719C153.536 19.2719 152.734 19.0537 152.028 18.6429L150.017 22.1009ZM193.354 2.62387L192.522 4.44282L192.533 4.44776L192.544 4.45257L193.354 2.62387ZM197.242 5.86387L195.56 6.94683L195.565 6.95339L195.569 6.95993L197.242 5.86387ZM197.242 15.7279L195.569 14.6318L197.242 15.7279ZM193.354 18.9679L194.164 20.7966L194.174 20.7918L194.185 20.7868L193.354 18.9679ZM183.022 20.0839V18.0839H181.022V20.0839H183.022ZM183.022 26.6719V28.6719H185.022V26.6719H183.022ZM175.894 26.6719H173.894V28.6719H175.894V26.6719ZM175.894 1.47187V-0.528127H173.894V1.47187H175.894ZM190.294 13.5319L191.579 15.0643L191.593 15.0523L191.607 15.04L190.294 13.5319ZM190.294 8.05987L188.98 9.56804L190.294 8.05987ZM183.022 7.08787V5.08787H181.022V7.08787H183.022ZM183.022 14.4679H181.022V16.4679H183.022V14.4679ZM187.414 3.47187C189.472 3.47187 191.157 3.81867 192.522 4.44282L194.185 0.804925C192.191 -0.10692 189.915 -0.528127 187.414 -0.528127V3.47187ZM192.544 4.45257C193.901 5.05341 194.879 5.88897 195.56 6.94683L198.923 4.78092C197.781 3.00678 196.167 1.68234 194.164 0.795175L192.544 4.45257ZM195.569 6.95993C196.239 7.98245 196.61 9.23344 196.61 10.7959H200.61C200.61 8.5663 200.069 6.5293 198.915 4.76782L195.569 6.95993ZM196.61 10.7959C196.61 12.3583 196.239 13.6093 195.569 14.6318L198.915 16.8239C200.069 15.0625 200.61 13.0254 200.61 10.7959H196.61ZM195.569 14.6318C194.886 15.6743 193.898 16.5199 192.522 17.1489L194.185 20.7868C196.169 19.8798 197.774 18.5654 198.915 16.8239L195.569 14.6318ZM192.544 17.1392C191.173 17.7465 189.48 18.0839 187.414 18.0839V22.0839C189.907 22.0839 192.175 21.6773 194.164 20.7966L192.544 17.1392ZM187.414 18.0839H183.022V22.0839H187.414V18.0839ZM181.022 20.0839V26.6719H185.022V20.0839H181.022ZM183.022 24.6719H175.894V28.6719H183.022V24.6719ZM177.894 26.6719V1.47187H173.894V26.6719H177.894ZM175.894 3.47187H187.414V-0.528127H175.894V3.47187ZM186.982 16.4679C188.686 16.4679 190.331 16.1107 191.579 15.0643L189.009 11.9995C188.768 12.201 188.205 12.4679 186.982 12.4679V16.4679ZM191.607 15.04C192.872 13.9389 193.41 12.4284 193.41 10.7959H189.41C189.41 11.5153 189.204 11.8288 188.98 12.0237L191.607 15.04ZM193.41 10.7959C193.41 9.16334 192.872 7.65282 191.607 6.55171L188.98 9.56804C189.204 9.76293 189.41 10.0764 189.41 10.7959H193.41ZM191.607 6.55171C190.358 5.46376 188.701 5.08787 186.982 5.08787V9.08787C188.19 9.08787 188.741 9.35999 188.98 9.56804L191.607 6.55171ZM186.982 5.08787H183.022V9.08787H186.982V5.08787ZM181.022 7.08787V14.4679H185.022V7.08787H181.022ZM183.022 16.4679H186.982V12.4679H183.022V16.4679ZM205.439 1.47187V-0.528127H203.439V1.47187H205.439ZM212.459 1.47187H214.459V-0.528127H212.459V1.47187ZM212.459 16.2679H210.459V22.5892L214.095 17.4183L212.459 16.2679ZM222.863 1.47187V-0.528127H221.824L221.227 0.321478L222.863 1.47187ZM229.559 1.47187H231.559V-0.528127H229.559V1.47187ZM229.559 26.6719V28.6719H231.559V26.6719H229.559ZM222.539 26.6719H220.539V28.6719H222.539V26.6719ZM222.539 11.9119H224.539V5.58519L220.902 10.7623L222.539 11.9119ZM212.171 26.6719V28.6719H213.21L213.808 27.8215L212.171 26.6719ZM205.439 26.6719H203.439V28.6719H205.439V26.6719ZM205.439 3.47187H212.459V-0.528127H205.439V3.47187ZM210.459 1.47187V16.2679H214.459V1.47187H210.459ZM214.095 17.4183L224.499 2.62227L221.227 0.321478L210.823 15.1175L214.095 17.4183ZM222.863 3.47187H229.559V-0.528127H222.863V3.47187ZM227.559 1.47187V26.6719H231.559V1.47187H227.559ZM229.559 24.6719H222.539V28.6719H229.559V24.6719ZM224.539 26.6719V11.9119H220.539V26.6719H224.539ZM220.902 10.7623L210.534 25.5223L213.808 27.8215L224.176 13.0615L220.902 10.7623ZM212.171 24.6719H205.439V28.6719H212.171V24.6719ZM207.439 26.6719V1.47187H203.439V26.6719H207.439ZM259.666 1.47187H261.666V-0.528127H259.666V1.47187ZM259.666 26.6719V28.6719H261.666V26.6719H259.666ZM252.646 26.6719H250.646V28.6719H252.646V26.6719ZM252.646 20.3359H254.646V18.3359H252.646V20.3359ZM248.758 20.3359V18.3359H247.676L247.084 19.2419L248.758 20.3359ZM244.618 26.6719V28.6719H245.701L246.293 27.7659L244.618 26.6719ZM237.13 26.6719L235.486 25.533L233.312 28.6719H237.13V26.6719ZM242.242 19.2919L243.886 20.4307L245.264 18.4425L243.052 17.4632L242.242 19.2919ZM238.39 16.0879L236.696 17.1505L236.7 17.157L236.704 17.1635L238.39 16.0879ZM242.35 2.62387L241.529 0.800511L242.35 2.62387ZM245.302 13.8559L243.913 15.2947L243.938 15.319L243.964 15.3425L245.302 13.8559ZM252.646 14.8279V16.8279H254.646V14.8279H252.646ZM252.646 7.08787H254.646V5.08787H252.646V7.08787ZM257.666 1.47187V26.6719H261.666V1.47187H257.666ZM259.666 24.6719H252.646V28.6719H259.666V24.6719ZM254.646 26.6719V20.3359H250.646V26.6719H254.646ZM252.646 18.3359H248.758V22.3359H252.646V18.3359ZM247.084 19.2419L242.944 25.5779L246.293 27.7659L250.433 21.4299L247.084 19.2419ZM244.618 24.6719H237.13V28.6719H244.618V24.6719ZM238.774 27.8107L243.886 20.4307L240.598 18.153L235.486 25.533L238.774 27.8107ZM243.052 17.4632C241.69 16.8599 240.729 16.0357 240.076 15.0122L236.704 17.1635C237.827 18.9241 239.435 20.2359 241.432 21.1206L243.052 17.4632ZM240.085 15.0253C239.427 13.9768 239.058 12.6784 239.058 11.0479H235.058C235.058 13.3053 235.577 15.367 236.696 17.1505L240.085 15.0253ZM239.058 11.0479C239.058 9.39894 239.436 8.07883 240.116 7.00598L236.737 4.86577C235.592 6.67292 235.058 8.76081 235.058 11.0479H239.058ZM240.116 7.00598C240.798 5.92829 241.789 5.07061 243.172 4.44724L241.529 0.800511C239.504 1.71313 237.878 3.06346 236.737 4.86577L240.116 7.00598ZM243.172 4.44724C244.567 3.81834 246.269 3.47187 248.326 3.47187V-0.528127C245.824 -0.528127 243.541 -0.106589 241.529 0.800511L243.172 4.44724ZM248.326 3.47187H259.666V-0.528127H248.326V3.47187ZM248.47 5.08787C246.8 5.08787 245.174 5.46594 243.962 6.575C242.715 7.715 242.258 9.29932 242.258 10.9399H246.258C246.258 10.0124 246.504 9.67075 246.661 9.52675C246.852 9.3518 247.333 9.08787 248.47 9.08787V5.08787ZM242.258 10.9399C242.258 12.5762 242.715 14.1377 243.913 15.2947L246.691 12.4171C246.498 12.2301 246.258 11.8476 246.258 10.9399H242.258ZM243.964 15.3425C245.173 16.4301 246.752 16.8279 248.398 16.8279V12.8279C247.356 12.8279 246.872 12.5776 246.64 12.3693L243.964 15.3425ZM248.398 16.8279H252.646V12.8279H248.398V16.8279ZM254.646 14.8279V7.08787H250.646V14.8279H254.646ZM252.646 5.08787H248.47V9.08787H252.646V5.08787ZM29.772 66.0199H31.772V64.0199H29.772V66.0199ZM29.772 76.7479V78.7479H31.772V76.7479H29.772ZM23.256 76.7479H21.256V78.7479H23.256V76.7479ZM23.256 71.6719H25.256V69.6719H23.256V71.6719ZM7.128 71.6719V69.6719H5.128V71.6719H7.128ZM7.128 76.7479V78.7479H9.128V76.7479H7.128ZM0.576 76.7479H-1.424V78.7479H0.576V76.7479ZM0.576 66.0199V64.0199H-1.424V66.0199H0.576ZM1.476 66.0199V68.0199H1.49213L1.50825 68.0196L1.476 66.0199ZM4.608 62.9599L2.69743 62.3685L2.69421 62.3789L2.6911 62.3894L4.608 62.9599ZM5.76 54.2479L7.75856 54.3238L7.75863 54.3219L5.76 54.2479ZM6.048 46.4719V44.4719H4.1207L4.04937 46.3979L6.048 46.4719ZM26.352 46.4719H28.352V44.4719H26.352V46.4719ZM26.352 66.0199H24.352V68.0199H26.352V66.0199ZM11.988 54.8599L9.98954 54.781L9.98927 54.7885L11.988 54.8599ZM11.34 61.6999L13.3085 62.0532L11.34 61.6999ZM9.792 66.0199L8.14621 64.8835L5.98061 68.0199H9.792V66.0199ZM19.332 66.0199V68.0199H21.332V66.0199H19.332ZM19.332 52.1239H21.332V50.1239H19.332V52.1239ZM12.096 52.1239V50.1239H10.1734L10.0976 52.045L12.096 52.1239ZM27.772 66.0199V76.7479H31.772V66.0199H27.772ZM29.772 74.7479H23.256V78.7479H29.772V74.7479ZM25.256 76.7479V71.6719H21.256V76.7479H25.256ZM23.256 69.6719H7.128V73.6719H23.256V69.6719ZM5.128 71.6719V76.7479H9.128V71.6719H5.128ZM7.128 74.7479H0.576V78.7479H7.128V74.7479ZM2.576 76.7479V66.0199H-1.424V76.7479H2.576ZM0.576 68.0199H1.476V64.0199H0.576V68.0199ZM1.50825 68.0196C2.75226 67.9995 3.87711 67.5424 4.77268 66.6674C5.62207 65.8376 6.16795 64.7297 6.5249 63.5304L2.6911 62.3894C2.44805 63.206 2.17193 63.6162 1.97733 63.8063C1.82889 63.9513 1.68774 64.0162 1.44375 64.0201L1.50825 68.0196ZM6.51857 63.5512C7.21997 61.2852 7.6123 58.1753 7.75856 54.3238L3.76144 54.172C3.6197 57.9045 3.24404 60.6025 2.69743 62.3685L6.51857 63.5512ZM7.75863 54.3219L8.04663 46.5459L4.04937 46.3979L3.76137 54.1739L7.75863 54.3219ZM6.048 48.4719H26.352V44.4719H6.048V48.4719ZM24.352 46.4719V66.0199H28.352V46.4719H24.352ZM26.352 68.0199H29.772V64.0199H26.352V68.0199ZM9.98927 54.7885C9.89539 57.4173 9.68548 59.597 9.37146 61.3465L13.3085 62.0532C13.6665 60.0587 13.8886 57.6785 13.9867 54.9313L9.98927 54.7885ZM9.37146 61.3465C9.06088 63.0769 8.61518 64.2043 8.14621 64.8835L11.4378 67.1563C12.3608 65.8195 12.9471 64.0668 13.3085 62.0532L9.37146 61.3465ZM9.792 68.0199H19.332V64.0199H9.792V68.0199ZM21.332 66.0199V52.1239H17.332V66.0199H21.332ZM19.332 50.1239H12.096V54.1239H19.332V50.1239ZM10.0976 52.045L9.98956 54.781L13.9864 54.9388L14.0944 52.2028L10.0976 52.045ZM60.2885 46.4719H62.2885V44.4719H60.2885V46.4719ZM60.2885 71.6719V73.6719H62.2885V71.6719H60.2885ZM53.2685 71.6719H51.2685V73.6719H53.2685V71.6719ZM53.2685 52.1239H55.2685V50.1239H53.2685V52.1239ZM46.0325 52.1239V50.1239H44.1014L44.0337 52.0537L46.0325 52.1239ZM45.8885 56.2279L43.8897 56.1577L43.8896 56.1612L45.8885 56.2279ZM44.9885 65.0119L43.0323 64.5957L43.0301 64.6056L43.0281 64.6156L44.9885 65.0119ZM42.6125 70.2679L44.0832 71.6232L44.0897 71.6161L44.0962 71.609L42.6125 70.2679ZM34.5845 71.6719L32.5891 71.5364L32.4746 73.2223L34.1177 73.6166L34.5845 71.6719ZM34.9805 65.8399L35.4302 63.8911L33.144 63.3635L32.9851 65.7044L34.9805 65.8399ZM39.1925 61.7359L41.1662 62.0589L41.1671 62.0532L39.1925 61.7359ZM39.6245 56.5159L37.6257 56.4442L37.6256 56.4485L39.6245 56.5159ZM39.9845 46.4719V44.4719H38.0549L37.9858 46.4002L39.9845 46.4719ZM58.2885 46.4719V71.6719H62.2885V46.4719H58.2885ZM60.2885 69.6719H53.2685V73.6719H60.2885V69.6719ZM55.2685 71.6719V52.1239H51.2685V71.6719H55.2685ZM53.2685 50.1239H46.0325V54.1239H53.2685V50.1239ZM44.0337 52.0537L43.8897 56.1577L47.8872 56.298L48.0312 52.194L44.0337 52.0537ZM43.8896 56.1612C43.7716 59.7012 43.4782 62.4999 43.0323 64.5957L46.9447 65.4281C47.4588 63.0119 47.7654 59.9545 47.8874 56.2945L43.8896 56.1612ZM43.0281 64.6156C42.6181 66.6441 41.943 68.0259 41.1287 68.9268L44.0962 71.609C45.5379 70.0139 46.4468 67.8917 46.9488 65.4081L43.0281 64.6156ZM41.1418 68.9125C40.48 69.6306 39.4736 70.1039 37.8245 70.1039V74.1039C40.3033 74.1039 42.4889 73.3532 44.0832 71.6232L41.1418 68.9125ZM37.8245 70.1039C37.0589 70.1039 36.1393 69.9883 35.0512 69.7271L34.1177 73.6166C35.4296 73.9315 36.6701 74.1039 37.8245 74.1039V70.1039ZM36.5799 71.8074L36.9759 65.9754L32.9851 65.7044L32.5891 71.5364L36.5799 71.8074ZM34.5308 67.7887C34.9973 67.8963 35.4726 67.9479 35.9525 67.9479V63.9479C35.7604 63.9479 35.5876 63.9274 35.4302 63.8911L34.5308 67.7887ZM35.9525 67.9479C37.519 67.9479 38.8741 67.2736 39.7683 65.9536L36.4566 63.7102C36.3712 63.8363 36.3083 63.8755 36.2764 63.892C36.2413 63.9102 36.1507 63.9479 35.9525 63.9479V67.9479ZM39.7683 65.9536C40.4945 64.8815 40.9243 63.5373 41.1662 62.0589L37.2187 61.4129C37.0286 62.5744 36.7384 63.2942 36.4566 63.7102L39.7683 65.9536ZM41.1671 62.0532C41.4017 60.5938 41.5499 58.7616 41.6233 56.5833L37.6256 56.4485C37.555 58.5421 37.4152 60.19 37.2178 61.4185L41.1671 62.0532ZM41.6232 56.5875L41.9832 46.5435L37.9858 46.4002L37.6258 56.4442L41.6232 56.5875ZM39.9845 48.4719H60.2885V44.4719H39.9845V48.4719ZM90.3749 46.4719H92.3749V44.4719H90.3749V46.4719ZM90.3749 71.6719V73.6719H92.3749V71.6719H90.3749ZM83.3549 71.6719H81.3549V73.6719H83.3549V71.6719ZM83.3549 65.3359H85.3549V63.3359H83.3549V65.3359ZM79.4669 65.3359V63.3359H78.3846L77.7926 64.2419L79.4669 65.3359ZM75.3269 71.6719V73.6719H76.4092L77.0012 72.7659L75.3269 71.6719ZM67.8389 71.6719L66.1948 70.533L64.0206 73.6719H67.8389V71.6719ZM72.9509 64.2919L74.595 65.4307L75.9722 63.4425L73.7608 62.4632L72.9509 64.2919ZM69.0989 61.0879L67.4045 62.1505L67.4086 62.157L67.4128 62.1635L69.0989 61.0879ZM73.0589 47.6239L72.2371 45.8005L73.0589 47.6239ZM76.0109 58.8559L74.6217 60.2947L74.6469 60.319L74.673 60.3425L76.0109 58.8559ZM83.3549 59.8279V61.8279H85.3549V59.8279H83.3549ZM83.3549 52.0879H85.3549V50.0879H83.3549V52.0879ZM88.3749 46.4719V71.6719H92.3749V46.4719H88.3749ZM90.3749 69.6719H83.3549V73.6719H90.3749V69.6719ZM85.3549 71.6719V65.3359H81.3549V71.6719H85.3549ZM83.3549 63.3359H79.4669V67.3359H83.3549V63.3359ZM77.7926 64.2419L73.6526 70.5779L77.0012 72.7659L81.1412 66.4299L77.7926 64.2419ZM75.3269 69.6719H67.8389V73.6719H75.3269V69.6719ZM69.483 72.8107L74.595 65.4307L71.3068 63.153L66.1948 70.533L69.483 72.8107ZM73.7608 62.4632C72.3985 61.8599 71.4379 61.0357 70.785 60.0122L67.4128 62.1635C68.5359 63.9241 70.1433 65.2359 72.1411 66.1206L73.7608 62.4632ZM70.7933 60.0253C70.1357 58.9768 69.7669 57.6784 69.7669 56.0479H65.7669C65.7669 58.3053 66.2861 60.367 67.4045 62.1505L70.7933 60.0253ZM69.7669 56.0479C69.7669 54.3989 70.1451 53.0788 70.8245 52.006L67.4453 49.8658C66.3007 51.6729 65.7669 53.7608 65.7669 56.0479H69.7669ZM70.8245 52.006C71.5071 50.9283 72.4976 50.0706 73.8807 49.4472L72.2371 45.8005C70.2122 46.7131 68.5867 48.0635 67.4453 49.8658L70.8245 52.006ZM73.8807 49.4472C75.2761 48.8183 76.9773 48.4719 79.0349 48.4719V44.4719C76.5325 44.4719 74.2497 44.8934 72.2371 45.8005L73.8807 49.4472ZM79.0349 48.4719H90.3749V44.4719H79.0349V48.4719ZM79.1789 50.0879C77.5087 50.0879 75.8829 50.4659 74.6702 51.575C73.4236 52.715 72.9669 54.2993 72.9669 55.9399H76.9669C76.9669 55.0124 77.2122 54.6707 77.3696 54.5268C77.5609 54.3518 78.0411 54.0879 79.1789 54.0879V50.0879ZM72.9669 55.9399C72.9669 57.5762 73.4234 59.1377 74.6217 60.2947L77.4001 57.4171C77.2064 57.23 76.9669 56.8476 76.9669 55.9399H72.9669ZM74.673 60.3425C75.8815 61.4301 77.4608 61.8279 79.1069 61.8279V57.8279C78.065 57.8279 77.5803 57.5776 77.3488 57.3693L74.673 60.3425ZM79.1069 61.8279H83.3549V57.8279H79.1069V61.8279ZM85.3549 59.8279V52.0879H81.3549V59.8279H85.3549ZM83.3549 50.0879H79.1789V54.0879H83.3549V50.0879ZM123.651 62.0239L125.371 61.0034L124.79 60.0239H123.651V62.0239ZM120.411 62.0239V60.0239H118.411V62.0239H120.411ZM120.411 71.6719V73.6719H122.411V71.6719H120.411ZM113.319 71.6719H111.319V73.6719H113.319V71.6719ZM113.319 46.4719V44.4719H111.319V46.4719H113.319ZM120.411 46.4719H122.411V44.4719H120.411V46.4719ZM120.411 56.2639H118.411V58.2639H120.411V56.2639ZM123.831 56.2639V58.2639H124.95L125.536 57.3103L123.831 56.2639ZM129.843 46.4719V44.4719H128.724L128.139 45.4254L129.843 46.4719ZM137.331 46.4719L139.01 47.5594L141.01 44.4719H137.331V46.4719ZM129.447 58.6399L127.769 57.5523L127.085 58.6082L127.74 59.682L129.447 58.6399ZM137.403 71.6719V73.6719H140.968L139.11 70.6297L137.403 71.6719ZM129.375 71.6719L127.655 72.6924L128.236 73.6719H129.375V71.6719ZM123.651 60.0239H120.411V64.0239H123.651V60.0239ZM118.411 62.0239V71.6719H122.411V62.0239H118.411ZM120.411 69.6719H113.319V73.6719H120.411V69.6719ZM115.319 71.6719V46.4719H111.319V71.6719H115.319ZM113.319 48.4719H120.411V44.4719H113.319V48.4719ZM118.411 46.4719V56.2639H122.411V46.4719H118.411ZM120.411 58.2639H123.831V54.2639H120.411V58.2639ZM125.536 57.3103L131.548 47.5183L128.139 45.4254L122.127 55.2174L125.536 57.3103ZM129.843 48.4719H137.331V44.4719H129.843V48.4719ZM135.653 45.3843L127.769 57.5523L131.126 59.7274L139.01 47.5594L135.653 45.3843ZM127.74 59.682L135.696 72.714L139.11 70.6297L131.154 57.5977L127.74 59.682ZM137.403 69.6719H129.375V73.6719H137.403V69.6719ZM131.095 70.6514L125.371 61.0034L121.931 63.0444L127.655 72.6924L131.095 70.6514ZM148.333 70.4839L147.391 72.248L147.399 72.2524L148.333 70.4839ZM143.329 65.8039L141.616 66.8359L141.621 66.8434L141.625 66.8509L143.329 65.8039ZM143.329 52.3399L141.625 51.2928L141.621 51.3003L141.616 51.3078L143.329 52.3399ZM148.333 47.6599L147.399 45.8913L147.391 45.8957L148.333 47.6599ZM162.697 47.6599L161.755 49.424L161.763 49.4284L162.697 47.6599ZM167.701 52.3399L165.988 53.3719L165.993 53.3794L165.997 53.3869L167.701 52.3399ZM167.701 65.8039L165.997 64.7568L165.993 64.7643L165.988 64.7719L167.701 65.8039ZM162.697 70.4839L161.763 68.7153L161.755 68.7197L162.697 70.4839ZM158.989 65.3719L159.994 67.1009L158.989 65.3719ZM161.437 62.8519L163.186 63.8232L163.19 63.815L163.194 63.8069L161.437 62.8519ZM161.437 55.3279L159.68 56.2829L159.684 56.2911L159.689 56.2992L161.437 55.3279ZM158.989 52.7719L159.994 51.0429V51.0429L158.989 52.7719ZM152.077 52.7719L151.072 51.0429L152.077 52.7719ZM149.629 55.3279L151.378 56.2992L151.382 56.2911L151.386 56.2829L149.629 55.3279ZM149.629 62.8519L147.872 63.8069L147.876 63.815L147.881 63.8232L149.629 62.8519ZM152.077 65.3719L153.082 63.6429L152.077 65.3719ZM155.533 70.1759C153.161 70.1759 151.087 69.6762 149.267 68.7153L147.399 72.2524C149.852 73.5476 152.578 74.1759 155.533 74.1759V70.1759ZM149.275 68.7197C147.469 67.7547 146.067 66.4389 145.033 64.7568L141.625 66.8509C143.04 69.1529 144.974 70.957 147.391 72.248L149.275 68.7197ZM145.042 64.7719C144.044 63.1143 143.529 61.2319 143.529 59.0719H139.529C139.529 61.9039 140.215 64.5095 141.616 66.8359L145.042 64.7719ZM143.529 59.0719C143.529 56.9119 144.044 55.0295 145.042 53.3719L141.616 51.3078C140.215 53.6343 139.529 56.2399 139.529 59.0719H143.529ZM145.033 53.3869C146.067 51.7049 147.469 50.389 149.275 49.424L147.391 45.8957C144.974 47.1867 143.04 48.9909 141.625 51.2928L145.033 53.3869ZM149.267 49.4284C151.087 48.4676 153.161 47.9679 155.533 47.9679V43.9679C152.578 43.9679 149.852 44.5962 147.399 45.8913L149.267 49.4284ZM155.533 47.9679C157.906 47.9679 159.964 48.4677 161.755 49.424L163.639 45.8957C161.206 44.5961 158.488 43.9679 155.533 43.9679V47.9679ZM161.763 49.4284C163.59 50.3933 164.983 51.7042 165.988 53.3719L169.414 51.3078C168.019 48.9916 166.076 47.1824 163.631 45.8913L161.763 49.4284ZM165.997 53.3869C167.014 55.0425 167.537 56.9195 167.537 59.0719H171.537C171.537 56.2322 170.836 53.6212 169.405 51.2928L165.997 53.3869ZM167.537 59.0719C167.537 61.2242 167.014 63.1012 165.997 64.7568L169.405 66.8509C170.836 64.5225 171.537 61.9115 171.537 59.0719H167.537ZM165.988 64.7719C164.983 66.4396 163.59 67.7505 161.763 68.7153L163.631 72.2524C166.076 70.9613 168.019 69.1522 169.414 66.8359L165.988 64.7719ZM161.755 68.7197C159.964 69.6761 157.906 70.1759 155.533 70.1759V74.1759C158.488 74.1759 161.206 73.5477 163.639 72.248L161.755 68.7197ZM155.533 68.2719C157.134 68.2719 158.637 67.8901 159.994 67.1009L157.984 63.6429C157.277 64.0537 156.476 64.2719 155.533 64.2719V68.2719ZM159.994 67.1009C161.349 66.3133 162.417 65.2065 163.186 63.8232L159.689 61.8806C159.257 62.6572 158.693 63.2304 157.984 63.6429L159.994 67.1009ZM163.194 63.8069C163.973 62.3742 164.337 60.7785 164.337 59.0719H160.337C160.337 60.1972 160.101 61.1215 159.68 61.8969L163.194 63.8069ZM164.337 59.0719C164.337 57.3662 163.973 55.7747 163.186 54.3566L159.689 56.2992C160.101 57.041 160.337 57.9455 160.337 59.0719H164.337ZM163.194 54.3728C162.429 52.9645 161.36 51.8369 159.994 51.0429L157.984 54.5009C158.682 54.9068 159.245 55.4832 159.68 56.2829L163.194 54.3728ZM159.994 51.0429C158.637 50.2537 157.134 49.8719 155.533 49.8719V53.8719C156.476 53.8719 157.277 54.0901 157.984 54.5009L159.994 51.0429ZM155.533 49.8719C153.932 49.8719 152.429 50.2537 151.072 51.0429L153.082 54.5009C153.789 54.0901 154.59 53.8719 155.533 53.8719V49.8719ZM151.072 51.0429C149.706 51.8369 148.637 52.9645 147.872 54.3728L151.386 56.2829C151.821 55.4832 152.384 54.9068 153.082 54.5009L151.072 51.0429ZM147.881 54.3566C147.093 55.7747 146.729 57.3662 146.729 59.0719H150.729C150.729 57.9455 150.965 57.041 151.378 56.2992L147.881 54.3566ZM146.729 59.0719C146.729 60.7785 147.093 62.3742 147.872 63.8069L151.386 61.8969C150.965 61.1215 150.729 60.1972 150.729 59.0719H146.729ZM147.881 63.8232C148.649 65.2065 149.717 66.3133 151.072 67.1009L153.082 63.6429C152.373 63.2304 151.809 62.6572 151.378 61.8806L147.881 63.8232ZM151.072 67.1009C152.429 67.8901 153.932 68.2719 155.533 68.2719V64.2719C154.59 64.2719 153.789 64.0537 153.082 63.6429L151.072 67.1009ZM199.664 71.6719L197.664 71.6773L197.67 73.6719H199.664V71.6719ZM199.628 58.3159L201.628 58.3105L201.609 51.0866L197.91 57.2919L199.628 58.3159ZM193.148 69.1879V71.1879H194.285L194.866 70.2118L193.148 69.1879ZM189.98 69.1879L188.275 70.2322L188.86 71.1879H189.98V69.1879ZM183.5 58.6039L185.206 57.5596L181.5 51.5069V58.6039H183.5ZM183.5 71.6719V73.6719H185.5V71.6719H183.5ZM176.948 71.6719H174.948V73.6719H176.948V71.6719ZM176.948 46.4719V44.4719H174.948V46.4719H176.948ZM182.816 46.4719L184.525 45.4317L183.94 44.4719H182.816V46.4719ZM191.672 61.0159L189.964 62.056L191.694 64.8962L193.392 62.0373L191.672 61.0159ZM200.312 46.4719V44.4719H199.174L198.593 45.4504L200.312 46.4719ZM206.18 46.4719L208.18 46.4662L208.175 44.4719H206.18V46.4719ZM206.252 71.6719V73.6719H208.258L208.252 71.6662L206.252 71.6719ZM201.664 71.6665L201.628 58.3105L197.628 58.3213L197.664 71.6773L201.664 71.6665ZM197.91 57.2919L191.43 68.1639L194.866 70.2118L201.346 59.3398L197.91 57.2919ZM193.148 67.1879H189.98V71.1879H193.148V67.1879ZM191.686 68.1436L185.206 57.5596L181.795 59.6482L188.275 70.2322L191.686 68.1436ZM181.5 58.6039V71.6719H185.5V58.6039H181.5ZM183.5 69.6719H176.948V73.6719H183.5V69.6719ZM178.948 71.6719V46.4719H174.948V71.6719H178.948ZM176.948 48.4719H182.816V44.4719H176.948V48.4719ZM181.108 47.512L189.964 62.056L193.381 59.9757L184.525 45.4317L181.108 47.512ZM193.392 62.0373L202.032 47.4933L198.593 45.4504L189.953 59.9944L193.392 62.0373ZM200.312 48.4719H206.18V44.4719H200.312V48.4719ZM204.18 46.4776L204.252 71.6776L208.252 71.6662L208.18 46.4662L204.18 46.4776ZM206.252 69.6719H199.664V73.6719H206.252V69.6719ZM232.6 66.7759L234.455 66.026L233.949 64.7759H232.6V66.7759ZM221.945 66.7759V64.7759H220.596L220.09 66.026L221.945 66.7759ZM219.964 71.6719V73.6719H221.313L221.819 72.4217L219.964 71.6719ZM212.692 71.6719L210.863 70.8642L209.623 73.6719H212.692V71.6719ZM223.816 46.4719V44.4719H222.513L221.987 45.6642L223.816 46.4719ZM230.837 46.4719L232.665 45.662L232.138 44.4719H230.837V46.4719ZM241.997 71.6719V73.6719H245.07L243.825 70.862L241.997 71.6719ZM234.581 71.6719L232.726 72.4217L233.232 73.6719H234.581V71.6719ZM230.512 61.5199V63.5199H233.471L232.368 60.7742L230.512 61.5199ZM227.272 53.4559L229.128 52.7102L227.272 48.0913L225.417 52.7102L227.272 53.4559ZM224.033 61.5199L222.177 60.7742L221.074 63.5199H224.033V61.5199ZM232.6 64.7759H221.945V68.7759H232.6V64.7759ZM220.09 66.026L218.11 70.9221L221.819 72.4217L223.799 67.5257L220.09 66.026ZM219.964 69.6719H212.692V73.6719H219.964V69.6719ZM214.522 72.4795L225.646 47.2795L221.987 45.6642L210.863 70.8642L214.522 72.4795ZM223.816 48.4719H230.837V44.4719H223.816V48.4719ZM229.008 47.2817L240.168 72.4817L243.825 70.862L232.665 45.662L229.008 47.2817ZM241.997 69.6719H234.581V73.6719H241.997V69.6719ZM236.435 70.9221L234.455 66.026L230.746 67.5257L232.726 72.4217L236.435 70.9221ZM232.368 60.7742L229.128 52.7102L225.417 54.2015L228.657 62.2655L232.368 60.7742ZM225.417 52.7102L222.177 60.7742L225.888 62.2655L229.128 54.2015L225.417 52.7102ZM224.033 63.5199H230.512V59.5199H224.033V63.5199ZM272.46 46.4719H274.46V44.4719H272.46V46.4719ZM272.46 71.6719V73.6719H274.46V71.6719H272.46ZM265.332 71.6719H263.332V73.6719H265.332V71.6719ZM265.332 61.8439H267.332V59.8439H265.332V61.8439ZM255.612 61.8439V59.8439H253.612V61.8439H255.612ZM255.612 71.6719V73.6719H257.612V71.6719H255.612ZM248.484 71.6719H246.484V73.6719H248.484V71.6719ZM248.484 46.4719V44.4719H246.484V46.4719H248.484ZM255.612 46.4719H257.612V44.4719H255.612V46.4719ZM255.612 55.9399H253.612V57.9399H255.612V55.9399ZM265.332 55.9399V57.9399H267.332V55.9399H265.332ZM265.332 46.4719V44.4719H263.332V46.4719H265.332ZM270.46 46.4719V71.6719H274.46V46.4719H270.46ZM272.46 69.6719H265.332V73.6719H272.46V69.6719ZM267.332 71.6719V61.8439H263.332V71.6719H267.332ZM265.332 59.8439H255.612V63.8439H265.332V59.8439ZM253.612 61.8439V71.6719H257.612V61.8439H253.612ZM255.612 69.6719H248.484V73.6719H255.612V69.6719ZM250.484 71.6719V46.4719H246.484V71.6719H250.484ZM248.484 48.4719H255.612V44.4719H248.484V48.4719ZM253.612 46.4719V55.9399H257.612V46.4719H253.612ZM255.612 57.9399H265.332V53.9399H255.612V57.9399ZM267.332 55.9399V46.4719H263.332V55.9399H267.332ZM265.332 48.4719H272.46V44.4719H265.332V48.4719ZM308.477 66.0199H310.477V64.0199H308.477V66.0199ZM308.477 76.7479V78.7479H310.477V76.7479H308.477ZM301.961 76.7479H299.961V78.7479H301.961V76.7479ZM301.961 71.6719H303.961V69.6719H301.961V71.6719ZM285.833 71.6719V69.6719H283.833V71.6719H285.833ZM285.833 76.7479V78.7479H287.833V76.7479H285.833ZM279.281 76.7479H277.281V78.7479H279.281V76.7479ZM279.281 66.0199V64.0199H277.281V66.0199H279.281ZM280.181 66.0199V68.0199H280.197L280.213 68.0196L280.181 66.0199ZM283.313 62.9599L281.402 62.3685L281.399 62.3789L281.396 62.3894L283.313 62.9599ZM284.465 54.2479L286.463 54.3238L286.463 54.3219L284.465 54.2479ZM284.753 46.4719V44.4719H282.825L282.754 46.3979L284.753 46.4719ZM305.057 46.4719H307.057V44.4719H305.057V46.4719ZM305.057 66.0199H303.057V68.0199H305.057V66.0199ZM290.693 54.8599L288.694 54.781L288.694 54.7885L290.693 54.8599ZM290.045 61.6999L292.013 62.0532L290.045 61.6999ZM288.497 66.0199L286.851 64.8835L284.685 68.0199H288.497V66.0199ZM298.037 66.0199V68.0199H300.037V66.0199H298.037ZM298.037 52.1239H300.037V50.1239H298.037V52.1239ZM290.801 52.1239V50.1239H288.878L288.802 52.045L290.801 52.1239ZM306.477 66.0199V76.7479H310.477V66.0199H306.477ZM308.477 74.7479H301.961V78.7479H308.477V74.7479ZM303.961 76.7479V71.6719H299.961V76.7479H303.961ZM301.961 69.6719H285.833V73.6719H301.961V69.6719ZM283.833 71.6719V76.7479H287.833V71.6719H283.833ZM285.833 74.7479H279.281V78.7479H285.833V74.7479ZM281.281 76.7479V66.0199H277.281V76.7479H281.281ZM279.281 68.0199H280.181V64.0199H279.281V68.0199ZM280.213 68.0196C281.457 67.9995 282.582 67.5424 283.477 66.6674C284.327 65.8376 284.873 64.7297 285.23 63.5304L281.396 62.3894C281.153 63.206 280.877 63.6162 280.682 63.8063C280.534 63.9513 280.392 64.0162 280.148 64.0201L280.213 68.0196ZM285.223 63.5512C285.925 61.2852 286.317 58.1753 286.463 54.3238L282.466 54.172C282.324 57.9045 281.949 60.6025 281.402 62.3685L285.223 63.5512ZM286.463 54.3219L286.751 46.5459L282.754 46.3979L282.466 54.1739L286.463 54.3219ZM284.753 48.4719H305.057V44.4719H284.753V48.4719ZM303.057 46.4719V66.0199H307.057V46.4719H303.057ZM305.057 68.0199H308.477V64.0199H305.057V68.0199ZM288.694 54.7885C288.6 57.4173 288.39 59.597 288.076 61.3465L292.013 62.0532C292.371 60.0587 292.593 57.6785 292.691 54.9313L288.694 54.7885ZM288.076 61.3465C287.766 63.0769 287.32 64.2043 286.851 64.8835L290.142 67.1563C291.066 65.8195 291.652 64.0668 292.013 62.0532L288.076 61.3465ZM288.497 68.0199H298.037V64.0199H288.497V68.0199ZM300.037 66.0199V52.1239H296.037V66.0199H300.037ZM298.037 50.1239H290.801V54.1239H298.037V50.1239ZM288.802 52.045L288.694 54.781L292.691 54.9388L292.799 52.2028L288.802 52.045Z" fill="white"/>
</svg>
