<svg width="38" height="50" viewBox="0 0 38 50" fill="none" xmlns="http://www.w3.org/2000/svg">
<path d="M8.09474 33.6776C6.87324 32.8195 5.78605 31.8518 4.83955 30.7743C4.69885 30.6131 2.56283 28.1679 1.62272 25.5808C-0.449343 19.8711 3.38142 13.5872 5.38314 10.3034C7.468 6.88402 8.73426 4.80015 11.3563 3.18079C18.3719 -1.16759 29.2951 1.35499 34.1491 7.72273C36.4769 10.7808 37.1932 14.4324 37.3339 15.2324C37.7624 17.6131 37.7048 20.0905 37.1548 22.6518C36.1636 27.2131 33.8229 30.9937 29.9666 33.6711C22.4073 38.9098 14.7714 44.0453 7.16742 49.2195C5.27442 50.5034 2.6076 50.0647 1.26459 48.2582C-0.238299 46.2453 -0.0208598 43.8195 1.98086 42.3421C4.20641 40.7034 6.54708 39.2195 8.83659 37.6647C9.78948 37.0195 10.7424 36.3679 11.6889 35.7227C10.4482 35.0324 9.20112 34.4582 8.09474 33.6776ZM12.6993 9.77434C8.71508 12.5679 6.2465 18.9485 8.84298 24.0905C11.9447 30.2518 21.0579 32.1873 26.3596 27.6518C30.5421 24.0776 31.316 17.3679 28.1247 12.7614C25.5666 9.06467 21.0068 7.52918 17.1504 8.06467C14.6883 8.41305 13.0447 9.52918 12.6993 9.77434Z" fill="#DD2C28"/>
<path d="M8.79765 34.3291C8.79765 35.4775 8.80404 36.6258 8.80404 37.7807C8.81683 40.542 8.91276 43.3097 8.81683 46.071C8.7273 48.5484 6.84709 50.1033 4.33375 50C2.07622 49.9033 0.2088 47.9613 0.202405 45.6775C0.176823 36.4904 0.10008 27.3033 0.157638 18.1162C0.183219 13.4323 1.98668 9.36135 5.19711 5.9678C8.98951 1.96135 13.7028 -0.0128404 19.2347 6.28388e-05C28.3672 0.0258693 36.2717 6.83232 37.6339 15.8517C39.2455 26.4968 31.7055 35.0323 22.8608 36.8839C19.3434 37.6194 15.8708 37.3871 12.5133 36.1355C11.247 35.6581 10.0703 34.9549 8.79765 34.3291ZM19.0173 8.60006C13.3383 8.61296 8.77207 13.0904 8.75928 18.6517C8.74649 24.1484 13.4214 28.7355 19.0237 28.7291C24.6899 28.7226 29.3137 24.142 29.2561 18.5936C29.205 13.0065 24.6835 8.58715 19.0173 8.60006Z" fill="#171717"/>
</svg>
