<svg width="16" height="20" viewBox="0 0 16 20" fill="none" xmlns="http://www.w3.org/2000/svg">
<path d="M3.63854 13.4722C3.15009 13.1291 2.71534 12.7421 2.33685 12.3112C2.28059 12.2467 1.42643 11.269 1.0505 10.2344C0.221911 7.95122 1.75377 5.43841 2.55422 4.12524C3.38792 2.7579 3.89428 1.9246 4.9428 1.27704C7.74822 -0.461802 12.1162 0.546935 14.0572 3.09329C14.9881 4.31615 15.2745 5.77637 15.3308 6.09628C15.5021 7.04826 15.4791 8.03894 15.2592 9.06315C14.8628 10.8871 13.9268 12.399 12.3847 13.4696C9.36191 15.5645 6.30842 17.6181 3.26773 19.6871C2.51075 20.2005 1.44433 20.0251 0.907284 19.3027C0.306304 18.4978 0.393254 17.5278 1.19371 16.937C2.08367 16.2817 3.01966 15.6883 3.9352 15.0666C4.31624 14.8086 4.69729 14.548 5.07578 14.29C4.57965 14.014 4.08097 13.7844 3.63854 13.4722ZM5.47984 3.91369C3.88661 5.03078 2.89947 7.58229 3.93775 9.63847C5.17807 12.1023 8.82231 12.8762 10.9424 11.0626C12.6149 9.63331 12.9243 6.95022 11.6482 5.10818C10.6252 3.6299 8.80185 3.01589 7.25976 3.23002C6.27518 3.36933 5.61794 3.81566 5.47984 3.91369Z" fill="#DD2C28"/>
<path d="M3.92039 13.732C3.92039 14.1912 3.92295 14.6504 3.92295 15.1122C3.92806 16.2164 3.96642 17.3232 3.92806 18.4274C3.89226 19.4181 3.14039 20.0398 2.13535 19.9986C1.2326 19.9599 0.485855 19.1833 0.483298 18.27C0.473068 14.5963 0.44238 10.9225 0.465396 7.24874C0.475626 5.37575 1.1968 3.74784 2.4806 2.39082C3.99711 0.788706 5.88188 -0.000740116 8.094 0.00441966C11.7459 0.0147392 14.9068 2.73652 15.4515 6.3432C16.096 10.6 13.0809 14.0132 9.54402 14.7536C8.13748 15.0477 6.74883 14.9549 5.40622 14.4544C4.89986 14.2635 4.4293 13.9823 3.92039 13.732ZM8.00705 3.44341C5.73611 3.44857 3.91016 5.23901 3.90505 7.46288C3.89993 9.66094 5.76936 11.4952 8.00961 11.4927C10.2754 11.4901 12.1244 9.65836 12.1014 7.43966C12.0809 5.20547 10.2729 3.43825 8.00705 3.44341Z" fill="black"/>
</svg>
