<svg width="285" height="73" viewBox="0 0 285 73" fill="none" xmlns="http://www.w3.org/2000/svg">
<path d="M19.132 7.12387V9.12387H21.1193L21.132 7.13661L19.132 7.12387ZM7.72 7.12387V5.12387H5.72V7.12387H7.72ZM7.72 26.6719V28.6719H9.72V26.6719H7.72ZM0.7 26.6719H-1.3V28.6719H0.7V26.6719ZM0.7 1.47187V-0.528127H-1.3V1.47187H0.7ZM19.168 1.47187L21.168 1.48461L21.1808 -0.528127H19.168V1.47187ZM19.132 5.12387H7.72V9.12387H19.132V5.12387ZM5.72 7.12387V26.6719H9.72V7.12387H5.72ZM7.72 24.6719H0.7V28.6719H7.72V24.6719ZM2.7 26.6719V1.47187H-1.3V26.6719H2.7ZM0.7 3.47187H19.168V-0.528127H0.7V3.47187ZM17.168 1.45914L17.132 7.11114L21.132 7.13661L21.168 1.48461L17.168 1.45914ZM28.9606 25.4839L28.0183 27.248L28.0266 27.2524L28.9606 25.4839ZM23.9566 20.8039L22.2434 21.8359L22.2479 21.8434L22.2525 21.8509L23.9566 20.8039ZM23.9566 7.33988L22.2525 6.29283L22.2479 6.30032L22.2434 6.30785L23.9566 7.33988ZM28.9606 2.65987L28.0266 0.891312L28.0183 0.895722L28.9606 2.65987ZM43.3246 2.65987L42.3823 4.42404L42.3906 4.42841L43.3246 2.65987ZM48.3286 7.33988L46.6154 8.3719L46.6199 8.37943L46.6245 8.38692L48.3286 7.33988ZM48.3286 20.8039L46.6245 19.7568L46.6199 19.7643L46.6154 19.7718L48.3286 20.8039ZM43.3246 25.4839L42.3906 23.7153L42.3823 23.7197L43.3246 25.4839ZM39.6166 20.3719L40.6218 22.1009L39.6166 20.3719ZM42.0646 17.8519L43.8129 18.8232L43.8174 18.8151L43.8218 18.8069L42.0646 17.8519ZM42.0646 10.3279L40.3073 11.2829L40.3117 11.2911L40.3162 11.2992L42.0646 10.3279ZM39.6166 7.77187L40.6218 6.04286L40.6218 6.04286L39.6166 7.77187ZM32.7046 7.77187L31.6993 6.04286V6.04286L32.7046 7.77187ZM30.2566 10.3279L32.0049 11.2992L32.0094 11.2911L32.0138 11.2829L30.2566 10.3279ZM30.2566 17.8519L28.4993 18.8069L28.5037 18.8151L28.5082 18.8232L30.2566 17.8519ZM32.7046 20.3719L33.7098 18.6429L32.7046 20.3719ZM36.1606 25.1759C33.788 25.1759 31.7139 24.6762 29.8945 23.7153L28.0266 27.2524C30.4792 28.5476 33.2052 29.1759 36.1606 29.1759V25.1759ZM29.9028 23.7197C28.0959 22.7547 26.6941 21.4389 25.6606 19.7568L22.2525 21.8509C23.667 24.1529 25.6012 25.957 28.0183 27.248L29.9028 23.7197ZM25.6697 19.7718C24.6712 18.1143 24.1566 16.2319 24.1566 14.0719H20.1566C20.1566 16.9039 20.8419 19.5095 22.2434 21.8359L25.6697 19.7718ZM24.1566 14.0719C24.1566 11.9119 24.6712 10.0295 25.6697 8.3719L22.2434 6.30785C20.8419 8.63426 20.1566 11.2399 20.1566 14.0719H24.1566ZM25.6606 8.38692C26.6941 6.70487 28.0959 5.38904 29.9028 4.42402L28.0183 0.895722C25.6012 2.1867 23.667 3.99088 22.2525 6.29283L25.6606 8.38692ZM29.8945 4.42841C31.7139 3.46759 33.788 2.96787 36.1606 2.96787V-1.03213C33.2052 -1.03213 30.4792 -0.403845 28.0266 0.891332L29.8945 4.42841ZM36.1606 2.96787C38.5335 2.96787 40.5918 3.46769 42.3823 4.42402L44.2668 0.895722C41.8334 -0.40394 39.1156 -1.03213 36.1606 -1.03213V2.96787ZM42.3906 4.42841C44.2177 5.3933 45.6107 6.70416 46.6154 8.3719L50.0417 6.30785C48.6464 3.99159 46.7034 2.18245 44.2585 0.891332L42.3906 4.42841ZM46.6245 8.38692C47.6418 10.0425 48.1646 11.9195 48.1646 14.0719H52.1646C52.1646 11.2322 51.4633 8.62124 50.0326 6.29283L46.6245 8.38692ZM48.1646 14.0719C48.1646 16.2242 47.6418 18.1012 46.6245 19.7568L50.0326 21.8509C51.4633 19.5225 52.1646 16.9115 52.1646 14.0719H48.1646ZM46.6154 19.7718C45.6107 21.4396 44.2177 22.7504 42.3906 23.7153L44.2585 27.2524C46.7034 25.9613 48.6464 24.1522 50.0417 21.8359L46.6154 19.7718ZM42.3823 23.7197C40.5918 24.6761 38.5335 25.1759 36.1606 25.1759V29.1759C39.1156 29.1759 41.8334 28.5477 44.2668 27.248L42.3823 23.7197ZM36.1606 23.2719C37.7617 23.2719 39.2644 22.8901 40.6218 22.1009L38.6113 18.6429C37.9047 19.0537 37.1034 19.2719 36.1606 19.2719V23.2719ZM40.6218 22.1009C41.9764 21.3133 43.0443 20.2065 43.8129 18.8232L40.3162 16.8806C39.8848 17.6572 39.3207 18.2304 38.6113 18.6429L40.6218 22.1009ZM43.8218 18.8069C44.6004 17.3742 44.9646 15.7785 44.9646 14.0719H40.9646C40.9646 15.1972 40.7287 16.1215 40.3073 16.8968L43.8218 18.8069ZM44.9646 14.0719C44.9646 12.3662 44.6007 10.7747 43.8129 9.35659L40.3162 11.2992C40.7284 12.041 40.9646 12.9455 40.9646 14.0719H44.9646ZM43.8218 9.37285C43.0564 7.96451 41.9876 6.83694 40.6218 6.04286L38.6113 9.50089C39.3095 9.90681 39.8727 10.4832 40.3073 11.2829L43.8218 9.37285ZM40.6218 6.04286C39.2644 5.25368 37.7617 4.87187 36.1606 4.87187V8.87187C37.1034 8.87187 37.9047 9.09007 38.6113 9.50089L40.6218 6.04286ZM36.1606 4.87187C34.5594 4.87187 33.0567 5.25368 31.6993 6.04286L33.7098 9.50089C34.4164 9.09007 35.2177 8.87187 36.1606 8.87187V4.87187ZM31.6993 6.04286C30.3335 6.83694 29.2647 7.96451 28.4993 9.37285L32.0138 11.2829C32.4484 10.4832 33.0116 9.90681 33.7098 9.50089L31.6993 6.04286ZM28.5082 9.35659C27.7204 10.7747 27.3566 12.3662 27.3566 14.0719H31.3566C31.3566 12.9455 31.5927 12.041 32.0049 11.2992L28.5082 9.35659ZM27.3566 14.0719C27.3566 15.7785 27.7207 17.3742 28.4993 18.8069L32.0138 16.8968C31.5924 16.1215 31.3566 15.1972 31.3566 14.0719H27.3566ZM28.5082 18.8232C29.2768 20.2065 30.3447 21.3133 31.6993 22.1009L33.7098 18.6429C33.0004 18.2304 32.4363 17.6572 32.0049 16.8806L28.5082 18.8232ZM31.6993 22.1009C33.0567 22.8901 34.5594 23.2719 36.1606 23.2719V19.2719C35.2177 19.2719 34.4164 19.0537 33.7098 18.6429L31.6993 22.1009ZM77.5282 7.12387V9.12387H79.5282V7.12387H77.5282ZM69.8242 7.12387V5.12387H67.8242V7.12387H69.8242ZM69.8242 26.6719V28.6719H71.8242V26.6719H69.8242ZM62.8042 26.6719H60.8042V28.6719H62.8042V26.6719ZM62.8042 7.12387H64.8042V5.12387H62.8042V7.12387ZM55.0642 7.12387H53.0642V9.12387H55.0642V7.12387ZM55.0642 1.47187V-0.528127H53.0642V1.47187H55.0642ZM77.5282 1.47187H79.5282V-0.528127H77.5282V1.47187ZM77.5282 5.12387H69.8242V9.12387H77.5282V5.12387ZM67.8242 7.12387V26.6719H71.8242V7.12387H67.8242ZM69.8242 24.6719H62.8042V28.6719H69.8242V24.6719ZM64.8042 26.6719V7.12387H60.8042V26.6719H64.8042ZM62.8042 5.12387H55.0642V9.12387H62.8042V5.12387ZM57.0642 7.12387V1.47187H53.0642V7.12387H57.0642ZM55.0642 3.47187H77.5282V-0.528127H55.0642V3.47187ZM75.5282 1.47187V7.12387H79.5282V1.47187H75.5282ZM89.2465 25.4839L88.3043 27.248L88.3126 27.2524L89.2465 25.4839ZM84.2425 20.8039L82.5293 21.8359L82.5339 21.8434L82.5385 21.8509L84.2425 20.8039ZM84.2425 7.33988L82.5385 6.29283L82.5339 6.30032L82.5293 6.30785L84.2425 7.33988ZM89.2465 2.65987L88.3125 0.891312L88.3043 0.895722L89.2465 2.65987ZM103.611 2.65987L102.668 4.42404L102.677 4.42841L103.611 2.65987ZM108.615 7.33988L106.901 8.3719L106.906 8.37943L106.91 8.38692L108.615 7.33988ZM108.615 20.8039L106.91 19.7568L106.906 19.7643L106.901 19.7718L108.615 20.8039ZM103.611 25.4839L102.677 23.7153L102.668 23.7197L103.611 25.4839ZM99.9025 20.3719L100.908 22.1009L99.9025 20.3719ZM102.351 17.8519L104.099 18.8232L104.103 18.8151L104.108 18.8069L102.351 17.8519ZM102.351 10.3279L100.593 11.2829L100.598 11.2911L100.602 11.2992L102.351 10.3279ZM99.9025 7.77187L100.908 6.04286V6.04286L99.9025 7.77187ZM92.9905 7.77187L91.9853 6.04286V6.04286L92.9905 7.77187ZM90.5425 10.3279L92.2908 11.2992L92.2953 11.2911L92.2998 11.2829L90.5425 10.3279ZM90.5425 17.8519L88.7853 18.8069L88.7897 18.8151L88.7942 18.8232L90.5425 17.8519ZM92.9905 20.3719L93.9957 18.6429L92.9905 20.3719ZM96.4465 25.1759C94.0739 25.1759 91.9999 24.6762 90.1805 23.7153L88.3126 27.2524C90.7651 28.5476 93.4911 29.1759 96.4465 29.1759V25.1759ZM90.1887 23.7197C88.3819 22.7547 86.9801 21.4389 85.9465 19.7568L82.5385 21.8509C83.9529 24.1529 85.8871 25.957 88.3043 27.248L90.1887 23.7197ZM85.9557 19.7718C84.9571 18.1143 84.4425 16.2319 84.4425 14.0719H80.4425C80.4425 16.9039 81.1279 19.5095 82.5293 21.8359L85.9557 19.7718ZM84.4425 14.0719C84.4425 11.9119 84.9571 10.0295 85.9557 8.3719L82.5293 6.30785C81.1279 8.63426 80.4425 11.2399 80.4425 14.0719H84.4425ZM85.9465 8.38692C86.9801 6.70487 88.3819 5.38904 90.1887 4.42402L88.3043 0.895722C85.8871 2.1867 83.9529 3.99088 82.5385 6.29283L85.9465 8.38692ZM90.1805 4.42841C91.9999 3.46759 94.0739 2.96787 96.4465 2.96787V-1.03213C93.4911 -1.03213 90.7651 -0.403845 88.3126 0.891332L90.1805 4.42841ZM96.4465 2.96787C98.8195 2.96787 100.878 3.46769 102.668 4.42402L104.553 0.895722C102.119 -0.40394 99.4015 -1.03213 96.4465 -1.03213V2.96787ZM102.677 4.42841C104.504 5.3933 105.897 6.70416 106.901 8.3719L110.328 6.30785C108.932 3.99159 106.989 2.18245 104.544 0.891332L102.677 4.42841ZM106.91 8.38692C107.928 10.0425 108.451 11.9195 108.451 14.0719H112.451C112.451 11.2322 111.749 8.62124 110.319 6.29283L106.91 8.38692ZM108.451 14.0719C108.451 16.2242 107.928 18.1012 106.91 19.7568L110.319 21.8509C111.749 19.5225 112.451 16.9115 112.451 14.0719H108.451ZM106.901 19.7718C105.897 21.4396 104.504 22.7504 102.677 23.7153L104.544 27.2524C106.989 25.9613 108.932 24.1522 110.328 21.8359L106.901 19.7718ZM102.668 23.7197C100.878 24.6761 98.8195 25.1759 96.4465 25.1759V29.1759C99.4015 29.1759 102.119 28.5477 104.553 27.248L102.668 23.7197ZM96.4465 23.2719C98.0476 23.2719 99.5504 22.8901 100.908 22.1009L98.8973 18.6429C98.1907 19.0537 97.3894 19.2719 96.4465 19.2719V23.2719ZM100.908 22.1009C102.262 21.3133 103.33 20.2065 104.099 18.8232L100.602 16.8806C100.171 17.6572 99.6067 18.2304 98.8973 18.6429L100.908 22.1009ZM104.108 18.8069C104.886 17.3742 105.251 15.7785 105.251 14.0719H101.251C101.251 15.1972 101.015 16.1215 100.593 16.8968L104.108 18.8069ZM105.251 14.0719C105.251 12.3662 104.887 10.7747 104.099 9.35659L100.602 11.2992C101.014 12.041 101.251 12.9455 101.251 14.0719H105.251ZM104.108 9.37285C103.342 7.96451 102.274 6.83694 100.908 6.04286L98.8973 9.50089C99.5954 9.90681 100.159 10.4832 100.593 11.2829L104.108 9.37285ZM100.908 6.04286C99.5504 5.25368 98.0476 4.87187 96.4465 4.87187V8.87187C97.3894 8.87187 98.1907 9.09007 98.8973 9.50089L100.908 6.04286ZM96.4465 4.87187C94.8454 4.87187 93.3427 5.25368 91.9853 6.04286L93.9957 9.50089C94.7024 9.09007 95.5036 8.87187 96.4465 8.87187V4.87187ZM91.9853 6.04286C90.6194 6.83694 89.5507 7.96451 88.7853 9.37285L92.2998 11.2829C92.7344 10.4832 93.2976 9.90681 93.9957 9.50089L91.9853 6.04286ZM88.7942 9.35659C88.0063 10.7747 87.6425 12.3662 87.6425 14.0719H91.6425C91.6425 12.9455 91.8787 12.041 92.2908 11.2992L88.7942 9.35659ZM87.6425 14.0719C87.6425 15.7785 88.0066 17.3742 88.7853 18.8069L92.2998 16.8968C91.8784 16.1215 91.6425 15.1972 91.6425 14.0719H87.6425ZM88.7942 18.8232C89.5627 20.2065 90.6306 21.3133 91.9853 22.1009L93.9957 18.6429C93.2864 18.2304 92.7223 17.6572 92.2908 16.8806L88.7942 18.8232ZM91.9853 22.1009C93.3426 22.8901 94.8454 23.2719 96.4465 23.2719V19.2719C95.5036 19.2719 94.7024 19.0537 93.9957 18.6429L91.9853 22.1009ZM136.222 13.4959L135.327 11.707L130.949 13.8964L135.608 15.3993L136.222 13.4959ZM139.606 15.7279L138.015 16.94L138.024 16.9518L138.033 16.9635L139.606 15.7279ZM138.166 24.7639L139.351 26.3746L139.355 26.3718L138.166 24.7639ZM117.862 26.6719H115.862V28.6719H117.862V26.6719ZM117.862 1.47187V-0.528127H115.862V1.47187H117.862ZM137.122 3.19987L135.98 4.84168L135.993 4.85111L136.007 4.86032L137.122 3.19987ZM138.742 11.2639L137.058 10.1845L137.048 10.2L137.038 10.2157L138.742 11.2639ZM124.882 11.5519H122.882V13.5519H124.882V11.5519ZM124.882 6.58387V4.58387H122.882V6.58387H124.882ZM124.882 16.3759V14.3759H122.882V16.3759H124.882ZM124.882 21.5599H122.882V23.5599H124.882V21.5599ZM135.608 15.3993C136.799 15.7836 137.547 16.3258 138.015 16.94L141.197 14.5158C140.129 13.1139 138.62 12.1682 136.836 11.5925L135.608 15.3993ZM138.033 16.9635C138.505 17.5642 138.794 18.3567 138.794 19.4719H142.794C142.794 17.611 142.29 15.9076 141.178 14.4922L138.033 16.9635ZM138.794 19.4719C138.794 21.0878 138.204 22.2478 136.976 23.156L139.355 26.3718C141.631 24.688 142.794 22.3199 142.794 19.4719H138.794ZM136.98 23.1532C135.727 24.0759 133.749 24.6719 130.786 24.6719V28.6719C134.206 28.6719 137.149 27.9959 139.351 26.3745L136.98 23.1532ZM130.786 24.6719H117.862V28.6719H130.786V24.6719ZM119.862 26.6719V1.47187H115.862V26.6719H119.862ZM117.862 3.47187H130.102V-0.528127H117.862V3.47187ZM130.102 3.47187C132.909 3.47187 134.788 4.01268 135.98 4.84168L138.264 1.55806C136.144 0.083065 133.342 -0.528127 130.102 -0.528127V3.47187ZM136.007 4.86032C137.113 5.60289 137.642 6.57681 137.642 8.02387H141.642C141.642 5.29494 140.491 3.05286 138.237 1.53943L136.007 4.86032ZM137.642 8.02387C137.642 8.9053 137.431 9.60279 137.058 10.1845L140.425 12.3432C141.253 11.053 141.642 9.59045 141.642 8.02387H137.642ZM137.038 10.2157C136.681 10.7963 136.14 11.3006 135.327 11.707L137.116 15.2847C138.511 14.5871 139.65 13.6034 140.445 12.3121L137.038 10.2157ZM124.882 13.5519H129.418V9.55187H124.882V13.5519ZM129.418 13.5519C130.649 13.5519 131.944 13.307 132.955 12.4763C134.042 11.5837 134.442 10.3193 134.442 9.06787H130.442C130.442 9.28287 130.409 9.37999 130.399 9.40259C130.395 9.41294 130.403 9.39607 130.416 9.38542C130.42 9.3827 130.203 9.55187 129.418 9.55187V13.5519ZM134.442 9.06787C134.442 7.81647 134.042 6.55201 132.955 5.65942C131.944 4.8287 130.649 4.58387 129.418 4.58387V8.58387C130.203 8.58387 130.42 8.75305 130.416 8.75033C130.403 8.73968 130.395 8.72281 130.399 8.73316C130.409 8.75576 130.442 8.85288 130.442 9.06787H134.442ZM129.418 4.58387H124.882V8.58387H129.418V4.58387ZM122.882 6.58387V11.5519H126.882V6.58387H122.882ZM130.498 23.5599C131.765 23.5599 133.089 23.2978 134.114 22.4276C135.202 21.5042 135.594 20.2098 135.594 18.9319H131.594C131.594 19.1779 131.557 19.3036 131.539 19.3506C131.534 19.3622 131.53 19.3696 131.528 19.3736C131.527 19.3756 131.526 19.377 131.526 19.3778C131.526 19.3782 131.525 19.3785 131.525 19.3786C131.525 19.3787 131.525 19.3788 131.525 19.3788C131.525 19.3789 131.525 19.3789 131.525 19.3789C131.525 19.3789 131.525 19.3789 131.525 19.3788C131.525 19.3788 131.525 19.3788 131.525 19.3787C131.525 19.3786 131.525 19.3784 131.526 19.3783C131.526 19.3779 131.526 19.3775 131.527 19.3772C131.527 19.3765 131.527 19.3767 131.525 19.3781C131.519 19.3839 131.294 19.5599 130.498 19.5599V23.5599ZM135.594 18.9319C135.594 17.6598 135.19 16.3783 134.093 15.4726C133.069 14.6275 131.755 14.3759 130.498 14.3759V18.3759C131.305 18.3759 131.538 18.5503 131.546 18.5572C131.548 18.5583 131.544 18.5554 131.54 18.5501C131.537 18.545 131.539 18.547 131.546 18.5624C131.559 18.595 131.594 18.7038 131.594 18.9319H135.594ZM130.498 14.3759H124.882V18.3759H130.498V14.3759ZM122.882 16.3759V21.5599H126.882V16.3759H122.882ZM124.882 23.5599H130.498V19.5599H124.882V23.5599ZM168.267 11.5879L166.991 13.1279L166.997 13.1334L167.004 13.1387L168.267 11.5879ZM148.251 26.6719H146.251V28.6719H148.251V26.6719ZM148.251 1.47187V-0.528127H146.251V1.47187H148.251ZM155.271 1.47187H157.271V-0.528127H155.271V1.47187ZM155.271 9.49987H153.271V11.4999H155.271V9.49987ZM162.543 20.5879L161.205 19.1013L161.192 19.1126L161.18 19.1241L162.543 20.5879ZM155.271 14.5759V12.5759H153.271V14.5759H155.271ZM155.271 21.5599H153.271V23.5599H155.271V21.5599ZM173.559 1.47187V-0.528127H171.559V1.47187H173.559ZM180.579 1.47187H182.579V-0.528127H180.579V1.47187ZM180.579 26.6719V28.6719H182.579V26.6719H180.579ZM173.559 26.6719H171.559V28.6719H173.559V26.6719ZM161.103 11.4999C163.925 11.4999 165.794 12.1361 166.991 13.1279L169.543 10.0478C167.38 8.2556 164.473 7.49987 161.103 7.49987V11.4999ZM167.004 13.1387C168.103 14.0335 168.787 15.4319 168.787 17.7079H172.787C172.787 14.5598 171.791 11.8782 169.53 10.037L167.004 13.1387ZM168.787 17.7079C168.787 20.145 168.026 21.7421 166.71 22.8217L169.247 25.914C171.676 23.9216 172.787 21.0787 172.787 17.7079H168.787ZM166.71 22.8217C165.31 23.9704 163.214 24.6719 160.167 24.6719V28.6719C163.792 28.6719 166.903 27.8373 169.247 25.914L166.71 22.8217ZM160.167 24.6719H148.251V28.6719H160.167V24.6719ZM150.251 26.6719V1.47187H146.251V26.6719H150.251ZM148.251 3.47187H155.271V-0.528127H148.251V3.47187ZM153.271 1.47187V9.49987H157.271V1.47187H153.271ZM155.271 11.4999H161.103V7.49987H155.271V11.4999ZM159.699 23.5599C161.267 23.5599 162.75 23.128 163.906 22.0517L161.18 19.1241C160.944 19.3437 160.531 19.5599 159.699 19.5599V23.5599ZM163.881 22.0745C165.111 20.9672 165.623 19.4632 165.623 17.8519H161.623C161.623 18.5925 161.415 18.9125 161.205 19.1013L163.881 22.0745ZM165.623 17.8519C165.623 16.3472 165.155 14.8877 163.924 13.8596C162.761 12.8892 161.236 12.5759 159.699 12.5759V16.5759C160.778 16.5759 161.214 16.8085 161.36 16.9302C161.437 16.9941 161.623 17.1725 161.623 17.8519H165.623ZM159.699 12.5759H155.271V16.5759H159.699V12.5759ZM153.271 14.5759V21.5599H157.271V14.5759H153.271ZM155.271 23.5599H159.699V19.5599H155.271V23.5599ZM173.559 3.47187H180.579V-0.528127H173.559V3.47187ZM178.579 1.47187V26.6719H182.579V1.47187H178.579ZM180.579 24.6719H173.559V28.6719H180.579V24.6719ZM175.559 26.6719V1.47187H171.559V26.6719H175.559ZM209.841 21.1639H211.841V19.1639H209.841V21.1639ZM209.841 26.6719V28.6719H211.841V26.6719H209.841ZM189.609 26.6719H187.609V28.6719H189.609V26.6719ZM189.609 1.47187V-0.528127H187.609V1.47187H189.609ZM209.373 1.47187H211.373V-0.528127H209.373V1.47187ZM209.373 6.97987V8.97987H211.373V6.97987H209.373ZM196.665 6.97987V4.97987H194.665V6.97987H196.665ZM196.665 11.2279H194.665V13.2279H196.665V11.2279ZM207.861 11.2279H209.861V9.22787H207.861V11.2279ZM207.861 16.5559V18.5559H209.861V16.5559H207.861ZM196.665 16.5559V14.5559H194.665V16.5559H196.665ZM196.665 21.1639H194.665V23.1639H196.665V21.1639ZM207.841 21.1639V26.6719H211.841V21.1639H207.841ZM209.841 24.6719H189.609V28.6719H209.841V24.6719ZM191.609 26.6719V1.47187H187.609V26.6719H191.609ZM189.609 3.47187H209.373V-0.528127H189.609V3.47187ZM207.373 1.47187V6.97987H211.373V1.47187H207.373ZM209.373 4.97987H196.665V8.97987H209.373V4.97987ZM194.665 6.97987V11.2279H198.665V6.97987H194.665ZM196.665 13.2279H207.861V9.22787H196.665V13.2279ZM205.861 11.2279V16.5559H209.861V11.2279H205.861ZM207.861 14.5559H196.665V18.5559H207.861V14.5559ZM194.665 16.5559V21.1639H198.665V16.5559H194.665ZM196.665 23.1639H209.841V19.1639H196.665V23.1639ZM10.888 62.0239L12.6081 61.0034L12.0269 60.0239H10.888V62.0239ZM7.648 62.0239V60.0239H5.648V62.0239H7.648ZM7.648 71.6719V73.6719H9.648V71.6719H7.648ZM0.556 71.6719H-1.444V73.6719H0.556V71.6719ZM0.556 46.4719V44.4719H-1.444V46.4719H0.556ZM7.648 46.4719H9.648V44.4719H7.648V46.4719ZM7.648 56.2639H5.648V58.2639H7.648V56.2639ZM11.068 56.2639V58.2639H12.1869L12.7724 57.3103L11.068 56.2639ZM17.08 46.4719V44.4719H15.9611L15.3756 45.4254L17.08 46.4719ZM24.568 46.4719L26.2465 47.5594L28.247 44.4719H24.568V46.4719ZM16.684 58.6399L15.0055 57.5523L14.3214 58.6082L14.977 59.682L16.684 58.6399ZM24.64 71.6719V73.6719H28.2042L26.347 70.6297L24.64 71.6719ZM16.612 71.6719L14.8919 72.6924L15.4731 73.6719H16.612V71.6719ZM10.888 60.0239H7.648V64.0239H10.888V60.0239ZM5.648 62.0239V71.6719H9.648V62.0239H5.648ZM7.648 69.6719H0.556V73.6719H7.648V69.6719ZM2.556 71.6719V46.4719H-1.444V71.6719H2.556ZM0.556 48.4719H7.648V44.4719H0.556V48.4719ZM5.648 46.4719V56.2639H9.648V46.4719H5.648ZM7.648 58.2639H11.068V54.2639H7.648V58.2639ZM12.7724 57.3103L18.7844 47.5183L15.3756 45.4254L9.36361 55.2174L12.7724 57.3103ZM17.08 48.4719H24.568V44.4719H17.08V48.4719ZM22.8895 45.3843L15.0055 57.5523L18.3625 59.7274L26.2465 47.5594L22.8895 45.3843ZM14.977 59.682L22.933 72.714L26.347 70.6297L18.391 57.5977L14.977 59.682ZM24.64 69.6719H16.612V73.6719H24.64V69.6719ZM18.3321 70.6514L12.6081 61.0034L9.16794 63.0444L14.8919 72.6924L18.3321 70.6514ZM35.5699 70.4839L34.6277 72.248L34.636 72.2524L35.5699 70.4839ZM30.5659 65.8039L28.8528 66.8359L28.8573 66.8434L28.8619 66.8509L30.5659 65.8039ZM30.5659 52.3399L28.8619 51.2928L28.8573 51.3003L28.8528 51.3078L30.5659 52.3399ZM35.5699 47.6599L34.636 45.8913L34.6277 45.8957L35.5699 47.6599ZM49.9339 47.6599L48.9917 49.424L49 49.4284L49.9339 47.6599ZM54.9379 52.3399L53.2248 53.3719L53.2293 53.3794L53.2339 53.3869L54.9379 52.3399ZM54.9379 65.8039L53.2339 64.7568L53.2293 64.7643L53.2248 64.7719L54.9379 65.8039ZM49.9339 70.4839L49 68.7153L48.9917 68.7197L49.9339 70.4839ZM46.2259 65.3719L47.2312 67.1009L46.2259 65.3719ZM48.6739 62.8519L50.4223 63.8232L50.4268 63.815L50.4312 63.8069L48.6739 62.8519ZM48.6739 55.3279L46.9167 56.2829L46.9211 56.2911L46.9256 56.2992L48.6739 55.3279ZM46.2259 52.7719L47.2312 51.0429L47.2312 51.0429L46.2259 52.7719ZM39.3139 52.7719L38.3087 51.0429L39.3139 52.7719ZM36.8659 55.3279L38.6143 56.2992L38.6188 56.2911L38.6232 56.2829L36.8659 55.3279ZM36.8659 62.8519L35.1087 63.8069L35.1131 63.815L35.1176 63.8232L36.8659 62.8519ZM39.3139 65.3719L40.3192 63.6429L39.3139 65.3719ZM42.7699 70.1759C40.3973 70.1759 38.3233 69.6762 36.5039 68.7153L34.636 72.2524C37.0886 73.5476 39.8145 74.1759 42.7699 74.1759V70.1759ZM36.5122 68.7197C34.7053 67.7547 33.3035 66.4389 32.27 64.7568L28.8619 66.8509C30.2764 69.1529 32.2106 70.957 34.6277 72.248L36.5122 68.7197ZM32.2791 64.7719C31.2806 63.1143 30.7659 61.2319 30.7659 59.0719H26.7659C26.7659 61.9039 27.4513 64.5095 28.8528 66.8359L32.2791 64.7719ZM30.7659 59.0719C30.7659 56.9119 31.2806 55.0295 32.2791 53.3719L28.8528 51.3078C27.4513 53.6343 26.7659 56.2399 26.7659 59.0719H30.7659ZM32.27 53.3869C33.3035 51.7049 34.7053 50.389 36.5122 49.424L34.6277 45.8957C32.2106 47.1867 30.2764 48.9909 28.8619 51.2928L32.27 53.3869ZM36.5039 49.4284C38.3233 48.4676 40.3973 47.9679 42.7699 47.9679V43.9679C39.8145 43.9679 37.0886 44.5962 34.636 45.8913L36.5039 49.4284ZM42.7699 47.9679C45.1429 47.9679 47.2011 48.4677 48.9917 49.424L50.8762 45.8957C48.4427 44.5961 45.725 43.9679 42.7699 43.9679V47.9679ZM49 49.4284C50.8271 50.3933 52.2201 51.7042 53.2248 53.3719L56.6511 51.3078C55.2558 48.9916 53.3128 47.1824 50.8679 45.8913L49 49.4284ZM53.2339 53.3869C54.2512 55.0425 54.7739 56.9195 54.7739 59.0719H58.7739C58.7739 56.2322 58.0727 53.6212 56.642 51.2928L53.2339 53.3869ZM54.7739 59.0719C54.7739 61.2242 54.2512 63.1012 53.2339 64.7568L56.642 66.8509C58.0727 64.5225 58.7739 61.9115 58.7739 59.0719H54.7739ZM53.2248 64.7719C52.2201 66.4396 50.8271 67.7505 49 68.7153L50.8679 72.2524C53.3128 70.9613 55.2558 69.1522 56.6511 66.8359L53.2248 64.7719ZM48.9917 68.7197C47.2011 69.6761 45.1429 70.1759 42.7699 70.1759V74.1759C45.725 74.1759 48.4427 73.5477 50.8762 72.248L48.9917 68.7197ZM42.7699 68.2719C44.3711 68.2719 45.8738 67.8901 47.2312 67.1009L45.2207 63.6429C44.5141 64.0537 43.7128 64.2719 42.7699 64.2719V68.2719ZM47.2312 67.1009C48.5858 66.3133 49.6537 65.2065 50.4223 63.8232L46.9256 61.8806C46.4942 62.6572 45.9301 63.2304 45.2207 63.6429L47.2312 67.1009ZM50.4312 63.8069C51.2098 62.3742 51.5739 60.7785 51.5739 59.0719H47.5739C47.5739 60.1972 47.3381 61.1215 46.9167 61.8969L50.4312 63.8069ZM51.5739 59.0719C51.5739 57.3662 51.2101 55.7747 50.4223 54.3566L46.9256 56.2992C47.3378 57.041 47.5739 57.9455 47.5739 59.0719H51.5739ZM50.4312 54.3728C49.6658 52.9645 48.597 51.8369 47.2312 51.0429L45.2207 54.5009C45.9189 54.9068 46.4821 55.4832 46.9167 56.2829L50.4312 54.3728ZM47.2312 51.0429C45.8738 50.2537 44.3711 49.8719 42.7699 49.8719V53.8719C43.7128 53.8719 44.5141 54.0901 45.2207 54.5009L47.2312 51.0429ZM42.7699 49.8719C41.1688 49.8719 39.6661 50.2537 38.3087 51.0429L40.3192 54.5009C41.0258 54.0901 41.8271 53.8719 42.7699 53.8719V49.8719ZM38.3087 51.0429C36.9429 51.8369 35.8741 52.9645 35.1087 54.3728L38.6232 56.2829C39.0578 55.4832 39.621 54.9068 40.3192 54.5009L38.3087 51.0429ZM35.1176 54.3566C34.3298 55.7747 33.9659 57.3662 33.9659 59.0719H37.9659C37.9659 57.9455 38.2021 57.041 38.6143 56.2992L35.1176 54.3566ZM33.9659 59.0719C33.9659 60.7785 34.3301 62.3742 35.1087 63.8069L38.6232 61.8969C38.2018 61.1215 37.9659 60.1972 37.9659 59.0719H33.9659ZM35.1176 63.8232C35.8862 65.2065 36.9541 66.3133 38.3087 67.1009L40.3192 63.6429C39.6098 63.2304 39.0457 62.6572 38.6143 61.8806L35.1176 63.8232ZM38.3087 67.1009C39.6661 67.8901 41.1688 68.2719 42.7699 68.2719V64.2719C41.8271 64.2719 41.0258 64.0537 40.3192 63.6429L38.3087 67.1009ZM86.9012 71.6719L84.9012 71.6773L84.9065 73.6719H86.9012V71.6719ZM86.8652 58.3159L88.8652 58.3105L88.8457 51.0866L85.1472 57.2919L86.8652 58.3159ZM80.3852 69.1879V71.1879H81.5214L82.1031 70.2118L80.3852 69.1879ZM77.2172 69.1879L75.5115 70.2322L76.0966 71.1879H77.2172V69.1879ZM70.7372 58.6039L72.4429 57.5596L68.7372 51.5069V58.6039H70.7372ZM70.7372 71.6719V73.6719H72.7372V71.6719H70.7372ZM64.1852 71.6719H62.1852V73.6719H64.1852V71.6719ZM64.1852 46.4719V44.4719H62.1852V46.4719H64.1852ZM70.0532 46.4719L71.7614 45.4317L71.1769 44.4719H70.0532V46.4719ZM78.9092 61.0159L77.2009 62.056L78.9303 64.8962L80.6286 62.0373L78.9092 61.0159ZM87.5492 46.4719V44.4719H86.411L85.8297 45.4504L87.5492 46.4719ZM93.4172 46.4719L95.4172 46.4662L95.4115 44.4719H93.4172V46.4719ZM93.4892 71.6719V73.6719H95.4949L95.4892 71.6662L93.4892 71.6719ZM88.9012 71.6665L88.8652 58.3105L84.8652 58.3213L84.9012 71.6773L88.9012 71.6665ZM85.1472 57.2919L78.6672 68.1639L82.1031 70.2118L88.5831 59.3398L85.1472 57.2919ZM80.3852 67.1879H77.2172V71.1879H80.3852V67.1879ZM78.9229 68.1436L72.4429 57.5596L69.0315 59.6482L75.5115 70.2322L78.9229 68.1436ZM68.7372 58.6039V71.6719H72.7372V58.6039H68.7372ZM70.7372 69.6719H64.1852V73.6719H70.7372V69.6719ZM66.1852 71.6719V46.4719H62.1852V71.6719H66.1852ZM64.1852 48.4719H70.0532V44.4719H64.1852V48.4719ZM68.3449 47.512L77.2009 62.056L80.6174 59.9757L71.7614 45.4317L68.3449 47.512ZM80.6286 62.0373L89.2686 47.4933L85.8297 45.4504L77.1897 59.9944L80.6286 62.0373ZM87.5492 48.4719H93.4172V44.4719H87.5492V48.4719ZM91.4172 46.4776L91.4892 71.6776L95.4892 71.6662L95.4172 46.4662L91.4172 46.4776ZM93.4892 69.6719H86.9012V73.6719H93.4892V69.6719ZM126.101 46.4719H128.101V44.4719H126.101V46.4719ZM126.101 71.6719V73.6719H128.101V71.6719H126.101ZM119.045 71.6719H117.045V73.6719H119.045V71.6719ZM119.045 52.1239H121.045V50.1239H119.045V52.1239ZM109.469 52.1239V50.1239H107.469V52.1239H109.469ZM109.469 71.6719V73.6719H111.469V71.6719H109.469ZM102.449 71.6719H100.449V73.6719H102.449V71.6719ZM102.449 46.4719V44.4719H100.449V46.4719H102.449ZM124.101 46.4719V71.6719H128.101V46.4719H124.101ZM126.101 69.6719H119.045V73.6719H126.101V69.6719ZM121.045 71.6719V52.1239H117.045V71.6719H121.045ZM119.045 50.1239H109.469V54.1239H119.045V50.1239ZM107.469 52.1239V71.6719H111.469V52.1239H107.469ZM109.469 69.6719H102.449V73.6719H109.469V69.6719ZM104.449 71.6719V46.4719H100.449V71.6719H104.449ZM102.449 48.4719H126.101V44.4719H102.449V48.4719ZM158.526 46.4719H160.526V44.4719H158.526V46.4719ZM158.526 71.6719V73.6719H160.526V71.6719H158.526ZM151.506 71.6719H149.506V73.6719H151.506V71.6719ZM151.506 52.1239H153.506V50.1239H151.506V52.1239ZM144.27 52.1239V50.1239H142.339L142.271 52.0537L144.27 52.1239ZM144.126 56.2279L142.127 56.1577L142.127 56.1612L144.126 56.2279ZM143.226 65.0119L141.27 64.5957L141.268 64.6056L141.266 64.6156L143.226 65.0119ZM140.85 70.2679L142.321 71.6232L142.327 71.6161L142.334 71.609L140.85 70.2679ZM132.822 71.6719L130.827 71.5364L130.712 73.2223L132.355 73.6166L132.822 71.6719ZM133.218 65.8399L133.668 63.8911L131.382 63.3635L131.223 65.7044L133.218 65.8399ZM137.43 61.7359L139.404 62.0589L139.405 62.0532L137.43 61.7359ZM137.862 56.5159L135.863 56.4442L135.863 56.4485L137.862 56.5159ZM138.222 46.4719V44.4719H136.292L136.223 46.4002L138.222 46.4719ZM156.526 46.4719V71.6719H160.526V46.4719H156.526ZM158.526 69.6719H151.506V73.6719H158.526V69.6719ZM153.506 71.6719V52.1239H149.506V71.6719H153.506ZM151.506 50.1239H144.27V54.1239H151.506V50.1239ZM142.271 52.0537L142.127 56.1577L146.125 56.298L146.269 52.194L142.271 52.0537ZM142.127 56.1612C142.009 59.7012 141.716 62.4999 141.27 64.5957L145.182 65.4281C145.696 63.0119 146.003 59.9545 146.125 56.2945L142.127 56.1612ZM141.266 64.6156C140.856 66.6441 140.181 68.0259 139.366 68.9268L142.334 71.609C143.775 70.0139 144.684 67.8917 145.186 65.4081L141.266 64.6156ZM139.379 68.9125C138.718 69.6306 137.711 70.1039 136.062 70.1039V74.1039C138.541 74.1039 140.726 73.3532 142.321 71.6232L139.379 68.9125ZM136.062 70.1039C135.296 70.1039 134.377 69.9883 133.289 69.7271L132.355 73.6166C133.667 73.9315 134.908 74.1039 136.062 74.1039V70.1039ZM134.817 71.8074L135.213 65.9754L131.223 65.7044L130.827 71.5364L134.817 71.8074ZM132.768 67.7887C133.235 67.8963 133.71 67.9479 134.19 67.9479V63.9479C133.998 63.9479 133.825 63.9274 133.668 63.8911L132.768 67.7887ZM134.19 67.9479C135.756 67.9479 137.112 67.2736 138.006 65.9536L134.694 63.7102C134.609 63.8363 134.546 63.8755 134.514 63.892C134.479 63.9102 134.388 63.9479 134.19 63.9479V67.9479ZM138.006 65.9536C138.732 64.8815 139.162 63.5373 139.404 62.0589L135.456 61.4129C135.266 62.5744 134.976 63.2942 134.694 63.7102L138.006 65.9536ZM139.405 62.0532C139.639 60.5938 139.787 58.7616 139.861 56.5833L135.863 56.4485C135.793 58.5421 135.653 60.19 135.455 61.4185L139.405 62.0532ZM139.861 56.5875L140.221 46.5435L136.223 46.4002L135.863 56.4442L139.861 56.5875ZM138.222 48.4719H158.526V44.4719H138.222V48.4719ZM187.748 66.1639H189.748V64.1639H187.748V66.1639ZM187.748 71.6719V73.6719H189.748V71.6719H187.748ZM167.516 71.6719H165.516V73.6719H167.516V71.6719ZM167.516 46.4719V44.4719H165.516V46.4719H167.516ZM187.28 46.4719H189.28V44.4719H187.28V46.4719ZM187.28 51.9799V53.9799H189.28V51.9799H187.28ZM174.572 51.9799V49.9799H172.572V51.9799H174.572ZM174.572 56.2279H172.572V58.2279H174.572V56.2279ZM185.768 56.2279H187.768V54.2279H185.768V56.2279ZM185.768 61.5559V63.5559H187.768V61.5559H185.768ZM174.572 61.5559V59.5559H172.572V61.5559H174.572ZM174.572 66.1639H172.572V68.1639H174.572V66.1639ZM185.748 66.1639V71.6719H189.748V66.1639H185.748ZM187.748 69.6719H167.516V73.6719H187.748V69.6719ZM169.516 71.6719V46.4719H165.516V71.6719H169.516ZM167.516 48.4719H187.28V44.4719H167.516V48.4719ZM185.28 46.4719V51.9799H189.28V46.4719H185.28ZM187.28 49.9799H174.572V53.9799H187.28V49.9799ZM172.572 51.9799V56.2279H176.572V51.9799H172.572ZM174.572 58.2279H185.768V54.2279H174.572V58.2279ZM183.768 56.2279V61.5559H187.768V56.2279H183.768ZM185.768 59.5559H174.572V63.5559H185.768V59.5559ZM172.572 61.5559V66.1639H176.572V61.5559H172.572ZM174.572 68.1639H187.748V64.1639H174.572V68.1639ZM205.597 62.0239L207.317 61.0034L206.736 60.0239H205.597V62.0239ZM202.357 62.0239V60.0239H200.357V62.0239H202.357ZM202.357 71.6719V73.6719H204.357V71.6719H202.357ZM195.265 71.6719H193.265V73.6719H195.265V71.6719ZM195.265 46.4719V44.4719H193.265V46.4719H195.265ZM202.357 46.4719H204.357V44.4719H202.357V46.4719ZM202.357 56.2639H200.357V58.2639H202.357V56.2639ZM205.777 56.2639V58.2639H206.896L207.482 57.3103L205.777 56.2639ZM211.789 46.4719V44.4719H210.67L210.085 45.4254L211.789 46.4719ZM219.277 46.4719L220.956 47.5594L222.956 44.4719H219.277V46.4719ZM211.393 58.6399L209.715 57.5523L209.031 58.6082L209.686 59.682L211.393 58.6399ZM219.349 71.6719V73.6719H222.914L221.056 70.6297L219.349 71.6719ZM211.321 71.6719L209.601 72.6924L210.182 73.6719H211.321V71.6719ZM205.597 60.0239H202.357V64.0239H205.597V60.0239ZM200.357 62.0239V71.6719H204.357V62.0239H200.357ZM202.357 69.6719H195.265V73.6719H202.357V69.6719ZM197.265 71.6719V46.4719H193.265V71.6719H197.265ZM195.265 48.4719H202.357V44.4719H195.265V48.4719ZM200.357 46.4719V56.2639H204.357V46.4719H200.357ZM202.357 58.2639H205.777V54.2639H202.357V58.2639ZM207.482 57.3103L213.494 47.5183L210.085 45.4254L204.073 55.2174L207.482 57.3103ZM211.789 48.4719H219.277V44.4719H211.789V48.4719ZM217.599 45.3843L209.715 57.5523L213.072 59.7274L220.956 47.5594L217.599 45.3843ZM209.686 59.682L217.642 72.714L221.056 70.6297L213.1 57.5977L209.686 59.682ZM219.349 69.6719H211.321V73.6719H219.349V69.6719ZM213.041 70.6514L207.317 61.0034L203.877 63.0444L209.601 72.6924L213.041 70.6514ZM245.224 52.1239V54.1239H247.224V52.1239H245.224ZM237.52 52.1239V50.1239H235.52V52.1239H237.52ZM237.52 71.6719V73.6719H239.52V71.6719H237.52ZM230.5 71.6719H228.5V73.6719H230.5V71.6719ZM230.5 52.1239H232.5V50.1239H230.5V52.1239ZM222.76 52.1239H220.76V54.1239H222.76V52.1239ZM222.76 46.4719V44.4719H220.76V46.4719H222.76ZM245.224 46.4719H247.224V44.4719H245.224V46.4719ZM245.224 50.1239H237.52V54.1239H245.224V50.1239ZM235.52 52.1239V71.6719H239.52V52.1239H235.52ZM237.52 69.6719H230.5V73.6719H237.52V69.6719ZM232.5 71.6719V52.1239H228.5V71.6719H232.5ZM230.5 50.1239H222.76V54.1239H230.5V50.1239ZM224.76 52.1239V46.4719H220.76V52.1239H224.76ZM222.76 48.4719H245.224V44.4719H222.76V48.4719ZM243.224 46.4719V52.1239H247.224V46.4719H243.224ZM272.125 56.5879L270.849 58.1279L270.856 58.1334L270.863 58.1387L272.125 56.5879ZM252.109 71.6719H250.109V73.6719H252.109V71.6719ZM252.109 46.4719V44.4719H250.109V46.4719H252.109ZM259.129 46.4719H261.129V44.4719H259.129V46.4719ZM259.129 54.4999H257.129V56.4999H259.129V54.4999ZM266.401 65.5879L265.063 64.1013L265.051 64.1126L265.039 64.1241L266.401 65.5879ZM259.129 59.5759V57.5759H257.129V59.5759H259.129ZM259.129 66.5599H257.129V68.5599H259.129V66.5599ZM277.417 46.4719V44.4719H275.417V46.4719H277.417ZM284.437 46.4719H286.437V44.4719H284.437V46.4719ZM284.437 71.6719V73.6719H286.437V71.6719H284.437ZM277.417 71.6719H275.417V73.6719H277.417V71.6719ZM264.961 56.4999C267.783 56.4999 269.652 57.1361 270.849 58.1279L273.401 55.0478C271.238 53.2556 268.331 52.4999 264.961 52.4999V56.4999ZM270.863 58.1387C271.961 59.0335 272.645 60.4319 272.645 62.7079H276.645C276.645 59.5598 275.649 56.8782 273.388 55.037L270.863 58.1387ZM272.645 62.7079C272.645 65.145 271.885 66.7421 270.569 67.8217L273.106 70.914C275.534 68.9216 276.645 66.0787 276.645 62.7079H272.645ZM270.569 67.8217C269.169 68.9704 267.072 69.6719 264.025 69.6719V73.6719C267.651 73.6719 270.762 72.8373 273.106 70.914L270.569 67.8217ZM264.025 69.6719H252.109V73.6719H264.025V69.6719ZM254.109 71.6719V46.4719H250.109V71.6719H254.109ZM252.109 48.4719H259.129V44.4719H252.109V48.4719ZM257.129 46.4719V54.4999H261.129V46.4719H257.129ZM259.129 56.4999H264.961V52.4999H259.129V56.4999ZM263.557 68.5599C265.125 68.5599 266.608 68.128 267.764 67.0517L265.039 64.1241C264.803 64.3438 264.39 64.5599 263.557 64.5599V68.5599ZM267.739 67.0745C268.97 65.9672 269.481 64.4632 269.481 62.8519H265.481C265.481 63.5925 265.273 63.9125 265.063 64.1013L267.739 67.0745ZM269.481 62.8519C269.481 61.3472 269.014 59.8877 267.782 58.8596C266.62 57.8892 265.095 57.5759 263.557 57.5759V61.5759C264.636 61.5759 265.073 61.8085 265.219 61.9302C265.295 61.9941 265.481 62.1725 265.481 62.8519H269.481ZM263.557 57.5759H259.129V61.5759H263.557V57.5759ZM257.129 59.5759V66.5599H261.129V59.5759H257.129ZM259.129 68.5599H263.557V64.5599H259.129V68.5599ZM277.417 48.4719H284.437V44.4719H277.417V48.4719ZM282.437 46.4719V71.6719H286.437V46.4719H282.437ZM284.437 69.6719H277.417V73.6719H284.437V69.6719ZM279.417 71.6719V46.4719H275.417V71.6719H279.417Z" fill="white"/>
</svg>
