<svg width="18" height="14" viewBox="0 0 18 14" fill="none" xmlns="http://www.w3.org/2000/svg">
<path fill-rule="evenodd" clip-rule="evenodd" d="M0 0.999219C0 0.557391 0.358172 0.199219 0.8 0.199219H14.2431C14.685 0.199219 15.0431 0.557391 15.0431 0.999219C15.0431 1.44105 14.685 1.79922 14.2431 1.79922H0.8C0.358172 1.79922 0 1.44105 0 0.999219Z" fill="#171717"/>
<path fill-rule="evenodd" clip-rule="evenodd" d="M0 6.99922C0 6.55739 0.358172 6.19922 0.8 6.19922H17.2C17.6418 6.19922 18 6.55739 18 6.99922C18 7.44105 17.6418 7.79922 17.2 7.79922H0.8C0.358172 7.79922 0 7.44105 0 6.99922Z" fill="#171717"/>
<path fill-rule="evenodd" clip-rule="evenodd" d="M0 12.9992C0 12.5574 0.358172 12.1992 0.8 12.1992H13.58C14.0219 12.1992 14.38 12.5574 14.38 12.9992C14.38 13.441 14.0219 13.7992 13.58 13.7992H0.8C0.358172 13.7992 0 13.441 0 12.9992Z" fill="#171717"/>
</svg>
