<svg width="20" height="20" viewBox="0 0 20 20" fill="none" xmlns="http://www.w3.org/2000/svg">
<path d="M15.3014 3.51846C15.6268 3.19302 16.1544 3.19302 16.4799 3.51845C16.8053 3.84389 16.8053 4.37153 16.4799 4.69697L4.69477 16.4821C4.36933 16.8075 3.8417 16.8075 3.51626 16.4821C3.19082 16.1566 3.19082 15.629 3.51626 15.3036L15.3014 3.51846Z" fill="#054EDB"/>
<path d="M16.4811 15.3033C16.8065 15.6288 16.8065 16.1564 16.4811 16.4818C16.1556 16.8073 15.628 16.8073 15.3025 16.4818L3.51744 4.69672C3.192 4.37128 3.192 3.84365 3.51743 3.51821C3.84287 3.19277 4.37051 3.19277 4.69595 3.51821L16.4811 15.3033Z" fill="#054EDB"/>
</svg>
