<svg width="32" height="32" viewBox="0 0 32 32" fill="none" xmlns="http://www.w3.org/2000/svg">
<rect width="32" height="32" rx="8" fill="#171717"/>
<path d="M22.3632 8.22176C22.7537 7.83123 23.3869 7.83123 23.7774 8.22176C24.1679 8.61228 24.1679 9.24544 23.7774 9.63597L9.63528 23.7781C9.24476 24.1686 8.61159 24.1686 8.22107 23.7781C7.83055 23.3876 7.83055 22.7544 8.22107 22.3639L22.3632 8.22176Z" fill="white"/>
<path d="M23.7773 22.3642C24.1678 22.7547 24.1678 23.3879 23.7773 23.7784C23.3867 24.1689 22.7536 24.1689 22.3631 23.7784L8.22092 9.63626C7.8304 9.24574 7.8304 8.61257 8.22092 8.22205C8.61144 7.83152 9.24461 7.83152 9.63513 8.22205L23.7773 22.3642Z" fill="white"/>
</svg>
