<svg width="46" height="58" viewBox="0 0 46 58" fill="none" xmlns="http://www.w3.org/2000/svg">
<path d="M1.76154 22.9775C1.70325 22.9775 1.64268 22.9729 1.58325 22.9637C0.960394 22.8666 0.532966 22.2826 0.631251 21.6586C2.62897 8.85517 11.4095 0.582031 22.9993 0.582031C34.565 0.582031 43.3421 8.83689 45.3604 21.6117C45.4598 22.2357 45.0335 22.8209 44.4107 22.9192C43.7867 23.0163 43.2004 22.5923 43.1033 21.9683C41.2404 10.1866 33.5375 2.86775 22.9993 2.86775C12.4381 2.86775 4.73182 10.2026 2.88839 22.0106C2.80154 22.574 2.31468 22.9775 1.76154 22.9775Z" fill="black"/>
<path d="M33.2708 16.7705C32.6914 16.7705 32.1954 16.3327 32.1348 15.7442C31.4194 8.7716 27.9748 3.49846 23.7565 2.91903C23.1314 2.83332 22.6937 2.25617 22.7805 1.63103C22.8662 1.00589 23.4365 0.570461 24.0685 0.655032C29.4171 1.38989 33.5725 7.36017 34.4091 15.5122C34.4731 16.1396 34.016 16.7019 33.3885 16.7659C33.3497 16.7693 33.3097 16.7705 33.2708 16.7705Z" fill="black"/>
<path d="M12.7081 22.4153C12.1287 22.4153 11.6327 21.9764 11.5721 21.3879C11.0292 16.0404 11.8955 10.9284 14.0098 6.99016C14.3069 6.43359 14.9995 6.2233 15.5572 6.52387C16.1127 6.82216 16.3218 7.51473 16.0235 8.0713C14.1229 11.6119 13.3504 16.2587 13.8475 21.157C13.9115 21.7844 13.4532 22.3456 12.8258 22.4096C12.7847 22.413 12.7458 22.4153 12.7081 22.4153Z" fill="black"/>
<path d="M21.8555 1.72266H24.1412V20.6895H21.8555V1.72266Z" fill="black"/>
<path d="M2.58984 21.0664L16.8686 36.3055L15.2001 37.8689L0.921272 22.6298L2.58984 21.0664Z" fill="black"/>
<path d="M12.0224 22.6974C7.01208 18.3454 2.74693 22.4642 2.56865 22.6425L0.949219 21.0288C2.97322 18.9911 8.20408 16.3568 13.5206 20.9705L12.0224 22.6974Z" fill="black"/>
<path d="M13.8086 21.3438L20.1981 34.5331L18.141 35.5297L11.7515 22.3403L13.8086 21.3438Z" fill="black"/>
<path d="M43.4102 21.0273L45.081 22.5885L30.8012 37.8718L29.1304 36.3107L43.4102 21.0273Z" fill="black"/>
<path d="M32.2266 21.3242L34.2677 22.3551L27.6609 35.4368L25.6198 34.4059L32.2266 21.3242Z" fill="black"/>
<path d="M22.2454 22.6971C20.5917 21.2606 18.9528 20.5909 17.3574 20.7086C15.1231 20.8731 13.6557 22.5566 13.6408 22.5737L11.8945 21.0994C11.9768 21.0011 13.9574 18.6834 17.1528 18.432C19.3848 18.2594 21.6008 19.1097 23.7448 20.9714L22.2454 22.6971Z" fill="black"/>
<path d="M33.9748 22.7007L32.4766 20.9738C37.7886 16.3624 43.024 18.9932 45.048 21.0321L43.4286 22.6458C43.2503 22.4698 38.984 18.3521 33.9748 22.7007Z" fill="black"/>
<path d="M21.8555 21.8359H24.1412V34.7136H21.8555V21.8359Z" fill="black"/>
<path d="M23.7522 22.6951L22.2539 20.9682C24.3968 19.1077 26.6208 18.2528 28.8459 18.4288C32.0413 18.6814 34.0196 20.9979 34.103 21.0962L32.3568 22.5705C32.3419 22.5534 30.8745 20.8699 28.6413 20.7054C27.0436 20.5877 25.4059 21.2585 23.7522 22.6951Z" fill="black"/>
<path d="M23.3186 52.5086C20.1323 52.5086 18.4889 50.4777 17.9254 49.5943C17.586 49.0617 17.7426 48.3554 18.2752 48.016C18.8077 47.6766 19.514 47.8331 19.8534 48.3646C20.4066 49.232 21.4706 50.2983 23.4157 50.2217C25.7369 50.1783 25.9552 48.6606 25.9654 48.1966C25.9586 48.0468 25.8134 46.5097 22.8409 46.4674C19.658 46.4228 18.5232 44.8308 18.13 43.8868C17.626 42.6777 17.8454 41.2731 18.7037 40.2217C19.362 39.4137 20.6614 38.4914 22.8672 38.4766C25.9117 38.504 27.1712 40.408 27.5723 41.2251C27.85 41.792 27.6169 42.4766 27.05 42.7543C26.4809 43.0354 25.7963 42.7977 25.5209 42.232C25.1963 41.5691 24.4683 40.7771 22.8466 40.7623C21.7814 40.776 20.9723 41.0571 20.4752 41.6663C20.1506 42.0651 20.0603 42.5783 20.2386 43.008C20.5552 43.7668 21.4409 44.1623 22.8729 44.1817C27.162 44.2434 28.2672 46.8514 28.2512 48.2206C28.2534 49.3783 27.3952 52.4331 23.458 52.5074C23.4112 52.5086 23.3643 52.5086 23.3186 52.5086Z" fill="black"/>
<path d="M22.8304 40.4973C22.1995 40.4973 21.6875 39.9865 21.6875 39.3545V38.3499C21.6875 37.7179 22.1995 37.207 22.8304 37.207C23.4612 37.207 23.9732 37.7179 23.9732 38.3499V39.3545C23.9732 39.9853 23.4624 40.4973 22.8304 40.4973Z" fill="black"/>
<path d="M22.8304 53.78C22.1995 53.78 21.6875 53.2692 21.6875 52.6372V51.6897C21.6875 51.0577 22.1995 50.5469 22.8304 50.5469C23.4612 50.5469 23.9732 51.0577 23.9732 51.6897V52.6372C23.9732 53.268 23.4624 53.78 22.8304 53.78Z" fill="black"/>
<path d="M22.9949 57.4172C16.42 57.4172 11.0703 52.0675 11.0703 45.4926C11.0703 38.9177 16.42 33.5703 22.9949 33.5703C29.5697 33.5703 34.9194 38.9189 34.9194 45.4937C34.9194 52.0686 29.5697 57.4172 22.9949 57.4172ZM22.9949 35.856C17.6806 35.856 13.356 40.1795 13.356 45.4937C13.356 50.808 17.6795 55.1326 22.9949 55.1326C28.3103 55.1326 32.6337 50.8092 32.6337 45.4937C32.6337 40.1795 28.3092 35.856 22.9949 35.856Z" fill="black"/>
</svg>
