<svg width="20" height="20" viewBox="0 0 20 20" fill="none" xmlns="http://www.w3.org/2000/svg">
<path d="M1.35547 7.26136L4.56964 2.11802C4.81403 1.72374 5.15534 1.39863 5.56102 1.17369C5.96671 0.948744 6.42326 0.831461 6.88714 0.833023H11.1571C12.1992 0.831755 13.2181 1.14007 14.0846 1.71886L14.168 1.77636V1.66636C14.168 1.44534 14.2558 1.23338 14.412 1.0771C14.5683 0.920821 14.7803 0.833023 15.0013 0.833023H18.3346C18.5556 0.833023 18.7676 0.920821 18.9239 1.0771C19.0802 1.23338 19.168 1.44534 19.168 1.66636V11.6664C19.168 11.8874 19.0802 12.0993 18.9239 12.2556C18.7676 12.4119 18.5556 12.4997 18.3346 12.4997H15.0013C14.8132 12.4964 14.6319 12.4284 14.488 12.3072C13.5337 13.2108 12.8393 14.3539 12.4771 15.6172L12.0013 17.2947C11.8157 17.9147 11.404 18.4425 10.8478 18.7736C10.2917 19.1046 9.6315 19.2148 8.99795 19.0824C8.3644 18.95 7.80364 18.5845 7.42664 18.0584C7.04965 17.5323 6.88387 16.8839 6.96214 16.2414L7.39714 12.4997H4.25797C3.64683 12.4997 3.04684 12.3361 2.52029 12.0258C1.99375 11.7156 1.55985 11.2701 1.26366 10.7355C0.967463 10.201 0.819769 9.59684 0.835915 8.98592C0.85206 8.37499 1.03145 7.77953 1.35547 7.26136ZM15.8346 10.833H17.5013V2.49969H15.8346V10.833ZM4.25797 10.833H8.33464C8.45229 10.833 8.56861 10.858 8.67593 10.9062C8.78326 10.9544 8.87917 11.0248 8.95734 11.1127C9.03551 11.2006 9.09417 11.3041 9.12947 11.4163C9.16477 11.5286 9.1759 11.647 9.16214 11.7639L8.6113 16.4564C8.59322 16.5859 8.60309 16.7179 8.64025 16.8433C8.6774 16.9688 8.74098 17.0848 8.82671 17.1837C8.91245 17.2825 9.01834 17.3619 9.13729 17.4164C9.25623 17.4709 9.38546 17.4993 9.5163 17.4997C9.71536 17.4991 9.90881 17.4337 10.0674 17.3134C10.226 17.1932 10.3412 17.0245 10.3955 16.833L10.8746 15.1555C11.4223 13.2557 12.5795 11.5887 14.168 10.4114V3.77886L13.158 3.10552C12.5658 2.70984 11.8694 2.49898 11.1571 2.49969H6.88714C6.70642 2.49904 6.52854 2.54465 6.37042 2.63217C6.2123 2.71968 6.07921 2.8462 5.9838 2.99969L2.76797 8.14469C2.60188 8.41069 2.50998 8.71628 2.50182 9.02977C2.49366 9.34326 2.56952 9.65322 2.72154 9.9275C2.87356 10.2018 3.0962 10.4304 3.36636 10.5896C3.63653 10.7488 3.94438 10.8329 4.25797 10.833Z" fill="#8B96B1"/>
</svg>
