<svg width="17" height="14" viewBox="0 0 17 14" fill="none" xmlns="http://www.w3.org/2000/svg">
<path d="M9.42969 2.64685C9.12448 2.61384 8.81436 2.59492 8.5 2.59021C7.12633 2.59631 5.70236 2.93044 4.35449 3.57069C3.35372 4.06565 2.37885 4.76441 1.53223 5.62635C1.11643 6.06635 0.585747 6.70344 0.5 7.38317C0.510133 7.972 1.14204 8.69878 1.53223 9.14003C2.32613 9.96811 3.27561 10.6469 4.35449 11.1957C4.39116 11.2135 4.42796 11.2311 4.46484 11.2484L3.46388 12.9964L4.82395 13.8003L12.1762 0.999814L10.867 0.199707L9.42969 2.64685ZM12.5342 3.51991L11.5351 5.25133C11.9947 5.84843 12.2676 6.58475 12.2676 7.38317C12.2676 9.37327 10.5806 10.9867 8.49901 10.9867C8.40903 10.9867 8.32181 10.977 8.23339 10.9711L7.57225 12.1156C7.87716 12.1483 8.18545 12.172 8.49999 12.1761C9.87496 12.17 11.2981 11.832 12.6445 11.1957C13.6453 10.7007 14.6211 10.002 15.4678 9.14003C15.8836 8.70004 16.4142 8.06293 16.5 7.38317C16.4899 6.79436 15.8579 6.06759 15.4678 5.62633C14.6739 4.79825 13.7234 4.11949 12.6445 3.57067C12.6081 3.55301 12.5708 3.53713 12.5342 3.51991ZM8.49903 3.77968C8.59031 3.77968 8.68087 3.78333 8.77051 3.78944L7.99609 5.13025C6.90924 5.3506 6.09375 6.27532 6.09375 7.38222C6.09375 7.66027 6.14496 7.92647 6.23925 8.17321C6.23936 8.17349 6.23915 8.17392 6.23925 8.1742L5.46288 9.51892C5.0022 8.92128 4.73045 8.18254 4.73045 7.38316C4.73047 5.3931 6.41744 3.77967 8.49903 3.77968ZM10.7519 6.60681L9.00684 9.63026C10.0879 9.40576 10.8975 8.48526 10.8975 7.38222C10.8975 7.10923 10.843 6.84969 10.7519 6.60681Z" fill="#CDDAF1"/>
</svg>
