<svg width="18" height="15" viewBox="0 0 18 15" fill="none" xmlns="http://www.w3.org/2000/svg">
<path d="M15.3661 14.9875C15.5318 14.9875 15.6908 14.9216 15.808 14.8044C15.9252 14.6872 15.9911 14.5282 15.9911 14.3625V12.4187C16.4973 12.283 16.9446 11.984 17.2637 11.5681C17.5827 11.1523 17.7556 10.6428 17.7556 10.1187C17.7556 9.59458 17.5827 9.0851 17.2637 8.66926C16.9446 8.25342 16.4973 7.95444 15.9911 7.8187V1.63745C15.9911 1.47169 15.9252 1.31272 15.808 1.19551C15.6908 1.0783 15.5318 1.01245 15.3661 1.01245C15.2003 1.01245 15.0414 1.0783 14.9241 1.19551C14.8069 1.31272 14.7411 1.47169 14.7411 1.63745V7.82495C14.2348 7.96069 13.7875 8.25967 13.4685 8.67551C13.1495 9.09135 12.9766 9.60083 12.9766 10.125C12.9766 10.6491 13.1495 11.1586 13.4685 11.5744C13.7875 11.9902 14.2348 12.2892 14.7411 12.425V14.3687C14.7427 14.5334 14.8093 14.6907 14.9263 14.8066C15.0434 14.9225 15.2014 14.9875 15.3661 14.9875ZM14.2223 10.1187C14.2223 9.89249 14.2894 9.67136 14.4151 9.48327C14.5408 9.29518 14.7194 9.14858 14.9284 9.06201C15.1374 8.97545 15.3674 8.9528 15.5892 8.99693C15.8111 9.04106 16.0149 9.14999 16.1748 9.30995C16.3348 9.4699 16.4437 9.6737 16.4879 9.89557C16.532 10.1174 16.5093 10.3474 16.4228 10.5564C16.3362 10.7654 16.1896 10.944 16.0015 11.0697C15.8134 11.1954 15.5923 11.2625 15.3661 11.2625C15.0627 11.2625 14.7718 11.1419 14.5573 10.9275C14.3428 10.713 14.2223 10.422 14.2223 10.1187Z" fill="#171717"/>
<path d="M9.00313 14.9875C9.16889 14.9875 9.32786 14.9216 9.44507 14.8044C9.56228 14.6872 9.62813 14.5282 9.62813 14.3625V5.69995C10.1883 5.54845 10.6743 5.19864 10.9958 4.71561C11.3173 4.23257 11.4524 3.64919 11.376 3.07399C11.2996 2.49878 11.0169 1.97092 10.5804 1.58859C10.1439 1.20625 9.58339 0.995483 9.00313 0.995483C8.42287 0.995483 7.86237 1.20625 7.42588 1.58859C6.9894 1.97092 6.70665 2.49878 6.63023 3.07399C6.55381 3.64919 6.68893 4.23257 7.01045 4.71561C7.33197 5.19864 7.818 5.54845 8.37813 5.69995V14.3625C8.37813 14.5282 8.44398 14.6872 8.56119 14.8044C8.6784 14.9216 8.83737 14.9875 9.00313 14.9875ZM7.85938 3.4062C7.85814 3.17973 7.92417 2.95798 8.04909 2.76907C8.17401 2.58016 8.35221 2.43259 8.56109 2.34507C8.76997 2.25754 9.00013 2.234 9.22241 2.27742C9.44469 2.32084 9.64907 2.42928 9.80965 2.58898C9.97023 2.74869 10.0798 2.95247 10.1244 3.17451C10.1691 3.39654 10.1468 3.62683 10.0604 3.83619C9.97402 4.04555 9.82743 4.22455 9.63921 4.3505C9.45099 4.47646 9.22961 4.5437 9.00313 4.5437C8.70087 4.54371 8.4109 4.42406 8.19658 4.21092C7.98226 3.99777 7.86103 3.70846 7.85938 3.4062Z" fill="#171717"/>
<path d="M2.01452 10.3V14.3625C2.01452 14.5282 2.08037 14.6872 2.19758 14.8044C2.31479 14.9216 2.47376 14.9875 2.63952 14.9875C2.80528 14.9875 2.96425 14.9216 3.08147 14.8044C3.19868 14.6872 3.26452 14.5282 3.26452 14.3625V10.3C3.77076 10.1642 4.21807 9.86524 4.5371 9.44939C4.85613 9.03355 5.02905 8.52407 5.02905 7.99995C5.02905 7.47583 4.85613 6.96635 4.5371 6.55051C4.21807 6.13467 3.77076 5.83569 3.26452 5.69995V1.63745C3.26452 1.47169 3.19868 1.31272 3.08147 1.19551C2.96425 1.0783 2.80528 1.01245 2.63952 1.01245C2.47376 1.01245 2.31479 1.0783 2.19758 1.19551C2.08037 1.31272 2.01452 1.47169 2.01452 1.63745V5.69995C1.50829 5.83569 1.06097 6.13467 0.741947 6.55051C0.42292 6.96635 0.25 7.47583 0.25 7.99995C0.25 8.52407 0.42292 9.03355 0.741947 9.44939C1.06097 9.86524 1.50829 10.1642 2.01452 10.3ZM2.63952 6.8562C2.866 6.85496 3.08774 6.92099 3.27665 7.04591C3.46556 7.17083 3.61313 7.34903 3.70066 7.55791C3.78818 7.76679 3.81173 7.99695 3.7683 8.21923C3.72488 8.44151 3.61644 8.64589 3.45674 8.80647C3.29703 8.96705 3.09325 9.0766 2.87122 9.12125C2.64918 9.16589 2.41889 9.1436 2.20954 9.05722C2.00018 8.97084 1.82118 8.82425 1.69522 8.63603C1.56927 8.44781 1.50203 8.22643 1.50202 7.99995C1.50202 7.69769 1.62166 7.40772 1.83481 7.1934C2.04795 6.97908 2.33727 6.85785 2.63952 6.8562Z" fill="#171717"/>
</svg>
