<svg width="16" height="20" viewBox="0 0 16 20" fill="none" xmlns="http://www.w3.org/2000/svg">
<path d="M12.0727 3.77906C10.2547 1.60531 8.46027 0.192463 8.38488 0.13348C7.97525 -0.186939 7.37476 0.105864 7.37476 0.625651V3.374C7.37476 4.79317 5.49666 5.29261 4.79282 4.05913C4.57396 3.67657 4.04179 3.63625 3.76629 3.97281C1.8749 6.28101 0.1875 9.19134 0.1875 12.1878C0.1875 16.4954 3.69207 20 7.99974 20C12.3074 20 15.812 16.4954 15.812 12.1878C15.812 9.11381 14.0371 6.12828 12.0727 3.77906ZM4.56235 10.0003C4.56235 9.31091 5.12327 8.75038 5.81231 8.75038C6.50135 8.75038 7.06227 9.31091 7.06227 10.0003C7.06227 10.6898 6.50135 11.2503 5.81231 11.2503C5.12327 11.2503 4.56235 10.6898 4.56235 10.0003ZM6.30566 15.3838C6.09488 15.6554 5.70208 15.706 5.42873 15.4935C5.15609 15.2814 5.10726 14.8888 5.31897 14.6166L9.69383 8.99178C9.90593 8.71913 10.2985 8.67031 10.5707 8.88202C10.8434 9.09412 10.8922 9.48668 10.6805 9.75894L6.30566 15.3838ZM10.1872 15.6252C9.49813 15.6252 8.93721 15.0646 8.93721 14.3752C8.93721 13.6858 9.49813 13.1252 10.1872 13.1252C10.8762 13.1252 11.4371 13.6858 11.4371 14.3752C11.4371 15.0646 10.8762 15.6252 10.1872 15.6252Z" fill="#8B96B1"/>
</svg>
