<svg width="24" height="24" viewBox="0 0 24 24" fill="none" xmlns="http://www.w3.org/2000/svg">
<path d="M0.58065 5.27251C0.953028 4.35817 1.48996 3.52961 2.16139 2.8332C2.83332 2.13472 3.62555 1.57964 4.49499 1.19816C5.39655 0.801017 6.36351 0.597736 7.33976 0.600118C8.70936 0.600118 10.0456 0.997831 11.2069 1.74907C11.4847 1.92877 11.7486 2.12616 11.9986 2.34122C12.2487 2.12616 12.5126 1.92877 12.7904 1.74907C13.9516 0.997831 15.2879 0.600118 16.6575 0.600118C17.6437 0.600118 18.5994 0.800448 19.5023 1.19816C20.3746 1.58114 21.1608 2.13205 21.8359 2.8332C22.5082 3.52882 23.0452 4.35758 23.4166 5.27251C23.8028 6.22407 24 7.23455 24 8.2745C24 9.25552 23.8111 10.2778 23.436 11.3177C23.1221 12.1868 22.6721 13.0883 22.097 13.9986C21.1858 15.4392 19.9329 16.9417 18.3771 18.4648C15.7991 20.9895 13.246 22.7336 13.1376 22.8043L12.4792 23.2521C12.1875 23.4494 11.8125 23.4494 11.5208 23.2521L10.8624 22.8043C10.754 22.7306 8.20375 20.9895 5.6229 18.4648C4.06716 16.9417 2.81424 15.4392 1.90302 13.9986C1.32796 13.0883 0.87513 12.1868 0.563984 11.3177C0.18894 10.2778 2.86102e-05 9.25552 2.86102e-05 8.2745C-0.0027504 7.23455 0.194496 6.22407 0.58065 5.27251ZM11.9986 20.9218C11.9986 20.9218 21.8886 14.2019 21.8886 8.2745C21.8886 5.2725 19.5467 2.83909 16.6575 2.83909C14.6267 2.83909 12.8654 4.04107 11.9986 5.7969C11.1319 4.04107 9.37055 2.83909 7.33976 2.83909C4.45054 2.83909 2.1086 5.2725 2.1086 8.2745C2.1086 14.2019 11.9986 20.9218 11.9986 20.9218Z" fill="#171717"/>
</svg>
