<svg width="20" height="20" viewBox="0 0 20 20" fill="none" xmlns="http://www.w3.org/2000/svg">
<path d="M0.483875 4.39367C0.794189 3.63173 1.24163 2.94126 1.80116 2.36092C2.3611 1.77885 3.02129 1.31629 3.74582 0.998386C4.49712 0.667432 5.30293 0.498032 6.11646 0.500017C7.2578 0.500017 8.37135 0.831444 9.33906 1.45747C9.57057 1.60723 9.7905 1.77172 9.99885 1.95093C10.2072 1.77172 10.4271 1.60723 10.6587 1.45747C11.6264 0.831444 12.7399 0.500017 13.8812 0.500017C14.7031 0.500017 15.4995 0.666958 16.2519 0.998386C16.9788 1.31754 17.634 1.77663 18.1966 2.36092C18.7568 2.9406 19.2044 3.63123 19.5138 4.39367C19.8356 5.18664 20 6.02871 20 6.89533C20 7.71285 19.8426 8.56474 19.53 9.43137C19.2684 10.1556 18.8934 10.9068 18.4142 11.6654C17.6548 12.8659 16.6107 14.118 15.3143 15.3872C13.1659 17.4912 11.0383 18.9446 10.948 19.0035L10.3994 19.3766C10.1563 19.5411 9.84374 19.5411 9.60066 19.3766L9.05199 19.0035C8.9617 18.9421 6.83646 17.4912 4.68575 15.3872C3.3893 14.118 2.3452 12.8659 1.58585 11.6654C1.10663 10.9068 0.729275 10.1556 0.469986 9.43137C0.15745 8.56474 2.28882e-05 7.71285 2.28882e-05 6.89533C-0.00229263 6.02871 0.162079 5.18664 0.483875 4.39367Z" fill="#054EDB"/>
</svg>
