<svg width="28" height="26" viewBox="0 0 28 26" fill="none" xmlns="http://www.w3.org/2000/svg">
<path d="M26.1799 6.39122C25.7827 5.49292 25.2099 4.6789 24.4937 3.99471C23.777 3.30848 22.932 2.76314 22.0046 2.38835C21.0429 1.99818 20.0115 1.79846 18.9701 1.8008C17.5092 1.8008 16.0839 2.19154 14.8452 2.92959C14.5489 3.10615 14.2674 3.30007 14.0007 3.51135C13.734 3.30007 13.4525 3.10615 13.1561 2.92959C11.9175 2.19154 10.4921 1.8008 9.03123 1.8008C7.97925 1.8008 6.95988 1.99762 5.9968 2.38835C5.06633 2.76462 4.22771 3.30586 3.50763 3.99471C2.7905 4.67812 2.21764 5.49234 1.82151 6.39122C1.40961 7.32609 1.19922 8.31884 1.19922 9.34054C1.19922 10.3044 1.40072 11.3087 1.80077 12.3304C2.13562 13.1842 2.61568 14.0699 3.22908 14.9642C4.20104 16.3796 5.53749 17.8557 7.19694 19.352C9.94689 21.8325 12.6702 23.5459 12.7857 23.6154L13.488 24.0553C13.7992 24.2493 14.1992 24.2493 14.5104 24.0553L15.2127 23.6154C15.3282 23.543 18.0486 21.8325 20.8015 19.352C22.4609 17.8557 23.7974 16.3796 24.7693 14.9642C25.3827 14.0699 25.8657 13.1842 26.1976 12.3304C26.5977 11.3087 26.7992 10.3044 26.7992 9.34054C26.8021 8.31884 26.5918 7.32609 26.1799 6.39122Z" fill="#DD2C28" stroke="white" stroke-width="2"/>
</svg>
