<svg width="28" height="29" viewBox="0 0 28 29" fill="none" xmlns="http://www.w3.org/2000/svg">
<path fill-rule="evenodd" clip-rule="evenodd" d="M14 28.5C21.732 28.5 28 22.232 28 14.5C28 6.76801 21.732 0.5 14 0.5C6.26801 0.5 0 6.76801 0 14.5C0 22.232 6.26801 28.5 14 28.5ZM14 6.33325C11.7817 6.33325 11.504 6.34216 10.6331 6.38225H10.6324C9.76376 6.42234 9.16982 6.56043 8.65012 6.76163C8.10553 6.96687 7.61224 7.28838 7.20462 7.70377C6.78895 8.11159 6.46719 8.60513 6.26174 9.15001C6.06055 9.66971 5.92171 10.2636 5.88237 11.1338C5.84302 12.0039 5.83337 12.2816 5.83337 14.4999C5.83337 16.7175 5.84227 16.9952 5.88237 17.8676C5.92246 18.7362 6.06055 19.3301 6.26174 19.8498C6.46689 20.3947 6.78841 20.8882 7.20388 21.2961C7.61208 21.7113 8.10587 22.0325 8.65087 22.2375C9.17056 22.4394 9.7645 22.5782 10.6331 22.6176C11.504 22.6569 11.7817 22.6666 14 22.6666C16.2184 22.6666 16.4961 22.6577 17.3677 22.6176C18.2363 22.5775 18.8302 22.4394 19.3499 22.2375C19.8941 22.0326 20.3879 21.7118 20.7962 21.2961C21.2114 20.8879 21.5327 20.3941 21.7376 19.8491C21.9395 19.3294 22.0784 18.7355 22.1177 17.8668C22.157 16.996 22.1667 16.7183 22.1667 14.4999C22.1667 12.2823 22.1578 12.0046 22.1177 11.1323C22.0776 10.2636 21.9395 9.66971 21.7376 9.15001C21.5327 8.60507 21.2119 8.1121 20.7962 7.70451C20.3879 7.28875 19.8941 6.96728 19.3499 6.76163C18.8302 6.56043 18.2363 6.4216 17.3662 6.38225C16.4961 6.3429 16.2184 6.33325 14 6.33325ZM14 7.80474C16.1805 7.80474 16.4389 7.8129 17.3001 7.85225C18.0967 7.88863 18.5288 8.02152 18.8169 8.13363C19.1715 8.26445 19.4924 8.47297 19.7561 8.7439C20.0419 9.02974 20.2178 9.30221 20.3663 9.68307C20.4784 9.97113 20.6113 10.4032 20.6477 11.1998C20.687 12.0611 20.6952 12.3194 20.6952 14.4999C20.6952 16.6804 20.687 16.9388 20.6477 17.8C20.6113 18.5966 20.4784 19.0287 20.3663 19.3168C20.2357 19.6709 20.027 19.9924 19.7561 20.2559C19.4702 20.5418 19.1977 20.7177 18.8169 20.8662C18.5288 20.9783 18.0967 21.1112 17.3001 21.1476C16.4389 21.1869 16.1813 21.1951 14 21.1951C11.8188 21.1951 11.5612 21.1869 10.7 21.1476C9.90334 21.1112 9.47124 20.9783 9.18318 20.8662C8.82905 20.7355 8.50758 20.5269 8.24402 20.2559C7.97303 19.9924 7.76441 19.6709 7.63374 19.3168C7.52164 19.0287 7.38874 18.5966 7.35237 17.8C7.31302 16.9388 7.30485 16.6804 7.30485 14.4999C7.30485 12.3194 7.31302 12.0611 7.35237 11.1998C7.38874 10.4032 7.52164 9.97113 7.63374 9.68307C7.76454 9.3284 7.97307 9.0075 8.24402 8.7439C8.52985 8.45807 8.80232 8.28212 9.18318 8.13363C9.47124 8.02152 9.90334 7.88863 10.7 7.85225C11.5612 7.8129 11.8195 7.80474 14 7.80474ZM14.7921 17.1101C14.1881 17.2927 13.5395 17.26 12.9569 17.0175C12.5848 16.8632 12.2516 16.6283 11.9812 16.3298C11.7108 16.0313 11.5099 15.6765 11.393 15.291C11.2762 14.9055 11.2463 14.4989 11.3054 14.1005C11.3646 13.702 11.5113 13.3217 11.7351 12.9867C11.9589 12.6518 12.2542 12.3707 12.5997 12.1636C12.9452 11.9565 13.3323 11.8286 13.7331 11.789C14.134 11.7495 14.5386 11.7993 14.9179 11.935C15.2972 12.0706 15.6417 12.2886 15.9266 12.5733C16.3736 13.0188 16.652 13.6055 16.7144 14.2335C16.7767 14.8614 16.6192 15.4915 16.2686 16.0161C15.918 16.5408 15.3961 16.9274 14.7921 17.1101ZM12.3936 10.6218C11.8844 10.8327 11.4216 11.1419 11.0318 11.5317C10.2446 12.3189 9.80235 13.3866 9.80235 14.4999C9.80235 15.6132 10.2446 16.6809 11.0318 17.4681C11.819 18.2554 12.8867 18.6976 14 18.6976C15.1133 18.6976 16.181 18.2554 16.9682 17.4681C17.358 17.0783 17.6672 16.6156 17.8782 16.1063C18.0891 15.597 18.1977 15.0512 18.1977 14.4999C18.1977 13.9487 18.0891 13.4028 17.8782 12.8935C17.6672 12.3842 17.358 11.9215 16.9682 11.5317C16.5785 11.1419 16.1157 10.8327 15.6064 10.6218C15.0971 10.4108 14.5513 10.3022 14 10.3022C13.4488 10.3022 12.9029 10.4108 12.3936 10.6218ZM19.3561 10.6051C19.3026 10.7267 19.2253 10.8363 19.1287 10.9274C18.9408 11.1046 18.6913 11.2016 18.4331 11.1978C18.1749 11.1941 17.9283 11.0898 17.7457 10.9072C17.5631 10.7246 17.4588 10.478 17.4551 10.2198C17.4513 9.96157 17.5483 9.71205 17.7255 9.52419C17.8166 9.4276 17.9262 9.35027 18.0478 9.29678C18.1693 9.2433 18.3003 9.21474 18.4331 9.21281C18.5659 9.21087 18.6977 9.23559 18.8207 9.28552C18.9438 9.33544 19.0556 9.40954 19.1495 9.50343C19.2434 9.59733 19.3175 9.70911 19.3674 9.83216C19.4173 9.9552 19.442 10.087 19.4401 10.2198C19.4382 10.3526 19.4096 10.4836 19.3561 10.6051Z" fill="black"/>
</svg>
