<svg width="20" height="20" viewBox="0 0 20 20" fill="none" xmlns="http://www.w3.org/2000/svg">
<path d="M15.742 7.50011H12.602L13.0387 3.77928C13.1279 3.13274 12.9691 2.47639 12.5942 1.94215C12.2193 1.40792 11.6561 1.03539 11.0177 0.899442C10.3794 0.763497 9.71321 0.874213 9.15315 1.20934C8.5931 1.54446 8.18064 2.07915 7.9987 2.70595L7.52286 4.38178C7.16092 5.64544 6.46649 6.78882 5.51203 7.69261C5.36811 7.57139 5.18684 7.50342 4.9987 7.50011H1.66536C1.44435 7.50011 1.23239 7.58791 1.07611 7.74419C0.919829 7.90047 0.832031 8.11243 0.832031 8.33345V18.3334C0.832031 18.5545 0.919829 18.7664 1.07611 18.9227C1.23239 19.079 1.44435 19.1668 1.66536 19.1668H4.9987C5.21971 19.1668 5.43167 19.079 5.58795 18.9227C5.74423 18.7664 5.83203 18.5545 5.83203 18.3334V18.2234L5.91536 18.2809C6.78189 18.8597 7.80082 19.168 8.84286 19.1668H13.1129C13.5767 19.1683 14.0333 19.0511 14.439 18.8261C14.8447 18.6012 15.186 18.2761 15.4304 17.8818L18.6445 12.7384C18.9685 12.2203 19.1479 11.6248 19.1641 11.0139C19.1802 10.403 19.0325 9.79885 18.7363 9.26429C18.4401 8.72972 18.0062 8.2842 17.4797 7.97397C16.9532 7.66374 16.3532 7.50013 15.742 7.50011ZM4.16536 17.5001H2.4987V9.16678H4.16536V17.5001ZM17.2312 11.8551L14.0162 17.0001C13.9208 17.1536 13.7877 17.2801 13.6296 17.3676C13.4715 17.4552 13.2936 17.5008 13.1129 17.5001H8.84286C8.13092 17.5007 7.43483 17.2898 6.84286 16.8943L5.83203 16.2209V9.58845C7.42153 8.40962 8.57885 6.74041 9.12536 4.83845L9.60453 3.16678C9.65882 2.97527 9.77397 2.80663 9.93258 2.68636C10.0912 2.56609 10.2846 2.50071 10.4837 2.50011C10.6148 2.49928 10.7445 2.52703 10.8639 2.58143C10.9832 2.63583 11.0892 2.71557 11.1745 2.81511C11.2627 2.9169 11.3274 3.03687 11.364 3.1665C11.4006 3.29613 11.4082 3.43223 11.3862 3.56511L10.8379 8.23678C10.8242 8.35356 10.8355 8.47191 10.8708 8.58404C10.9062 8.69617 10.9649 8.79956 11.043 8.88739C11.1212 8.97523 11.217 9.04554 11.3243 9.09369C11.4316 9.14184 11.5478 9.16675 11.6654 9.16678H15.742C16.0557 9.16679 16.3636 9.25078 16.6338 9.41C16.904 9.56922 17.1266 9.79789 17.2786 10.0722C17.4306 10.3466 17.5063 10.6566 17.498 10.9701C17.4897 11.2837 17.3975 11.5892 17.2312 11.8551Z" fill="#8B96B1"/>
</svg>
