<svg width="12" height="16" viewBox="0 0 12 16" fill="none" xmlns="http://www.w3.org/2000/svg">
<path d="M10.2044 6.6188C10.0597 6.47413 9.91504 6.31137 9.77037 6.18478V3.76151C9.77037 1.68183 8.08854 0 6.00886 0C3.92918 0 2.24736 1.68183 2.24736 3.76151V6.11245C2.24736 6.13053 2.24736 6.14862 2.24736 6.1667C-0.0674175 8.24638 -0.266343 11.809 1.79525 14.1237C3.85685 16.4385 7.43751 16.6374 9.75229 14.5758C12.0671 12.5142 12.266 8.93358 10.2044 6.6188ZM6.49714 11.5919C6.49714 11.8632 6.28013 12.0802 6.00886 12.0802C5.7376 12.0802 5.52059 11.8632 5.52059 11.5919V10.3984C5.52059 10.1271 5.7376 9.91012 6.00886 9.91012C6.28013 9.91012 6.49714 10.1271 6.49714 10.3984V11.5919ZM8.77574 5.4795C7.05774 4.50296 4.95998 4.50296 3.24199 5.4795V3.77959C3.24199 2.26052 4.47171 1.01271 6.00886 1.01271C7.54602 1.01271 8.77574 2.24244 8.77574 3.77959V5.4795Z" fill="white"/>
</svg>
