<svg width="28" height="26" viewBox="0 0 28 26" fill="none" xmlns="http://www.w3.org/2000/svg">
<path d="M26.1799 6.39048C25.7827 5.49219 25.2099 4.67816 24.4937 3.99398C23.777 3.30775 22.932 2.76241 22.0046 2.38762C21.0429 1.99744 20.0115 1.79773 18.9701 1.80007C17.5092 1.80007 16.0839 2.1908 14.8452 2.92886C14.5489 3.10541 14.2674 3.29933 14.0007 3.51062C13.734 3.29933 13.4525 3.10541 13.1561 2.92886C11.9175 2.1908 10.4921 1.80007 9.03123 1.80007C7.97925 1.80007 6.95988 1.99688 5.9968 2.38762C5.06633 2.76388 4.22771 3.30512 3.50763 3.99398C2.7905 4.67739 2.21764 5.49161 1.82151 6.39048C1.40961 7.32535 1.19922 8.31811 1.19922 9.33981C1.19922 10.3036 1.40072 11.308 1.80077 12.3297C2.13562 13.1835 2.61568 14.0692 3.22908 14.9635C4.20104 16.3788 5.53749 17.8549 7.19694 19.3513C9.94689 21.8318 12.6702 23.5452 12.7857 23.6147L13.488 24.0546C13.7992 24.2485 14.1992 24.2485 14.5104 24.0546L15.2127 23.6147C15.3282 23.5423 18.0486 21.8318 20.8015 19.3513C22.4609 17.8549 23.7974 16.3788 24.7693 14.9635C25.3827 14.0692 25.8657 13.1835 26.1976 12.3297C26.5977 11.308 26.7992 10.3036 26.7992 9.33981C26.8021 8.31811 26.5918 7.32535 26.1799 6.39048Z" fill="white" stroke="#CDDAF1" stroke-width="2"/>
</svg>
