<svg width="64" height="64" viewBox="0 0 64 64" fill="none" xmlns="http://www.w3.org/2000/svg">
<g clip-path="url(#clip0_2183_91)">
<path d="M38.5353 18.4653C38.1779 18.1684 37.7805 18.0195 37.3423 18.0195C36.7771 18.0195 36.3706 18.2597 36.122 18.7395L23.9169 43.7315C23.8263 43.9603 23.7812 44.1547 23.7812 44.3143C23.7812 44.7027 23.9366 45.0513 24.2483 45.3599C24.5595 45.6684 24.9456 45.8227 25.407 45.8227C26.0851 45.8227 26.526 45.5709 26.7296 45.0684L38.9359 20.1792C39.0259 19.9965 39.0714 19.7908 39.0714 19.5622C39.0714 19.1285 38.8925 18.7627 38.5353 18.4653Z" fill="black"/>
<path d="M27.2089 20.4573C26.3497 19.7492 25.1751 19.3945 23.6848 19.3945C22.1943 19.3945 21.0242 19.7492 20.1738 20.4573C19.3234 21.166 18.8984 22.286 18.8984 23.817V28.788C18.8984 30.3195 19.3233 31.4395 20.1738 32.1478C21.0239 32.8565 22.1943 33.2105 23.6848 33.2105C25.1751 33.2105 26.3498 32.8564 27.2089 32.1478C28.0682 31.4397 28.4977 30.3197 28.4977 28.788V23.817C28.4977 22.286 28.0681 21.166 27.2089 20.4573ZM25.6522 28.788C25.6522 30.0222 24.9948 30.6393 23.6809 30.6393C22.3894 30.6393 21.7442 30.0222 21.7442 28.788V23.817C21.7442 22.5828 22.3894 21.9658 23.6809 21.9658C24.9948 21.9658 25.6522 22.5828 25.6522 23.817V28.788Z" fill="black"/>
<path d="M42.5292 31.8012C41.67 31.0929 40.4954 30.7383 39.0051 30.7383C37.5149 30.7383 36.3445 31.0929 35.4941 31.8012C34.6438 32.5099 34.2188 33.6299 34.2188 35.1609V40.1319C34.2188 43.0803 35.813 44.5544 39.001 44.5544C40.4707 44.5544 41.6409 44.2003 42.512 43.4917C43.3825 42.7834 43.8179 41.6634 43.8179 40.1319V35.1608C43.818 33.63 43.3885 32.5099 42.5292 31.8012ZM40.9725 40.1318C40.9725 41.366 40.3154 41.983 39.0012 41.983C37.7097 41.983 37.0645 41.3659 37.0645 40.1318V35.1608C37.0645 33.9265 37.7097 33.3095 39.0012 33.3095C40.3154 33.3095 40.9725 33.9267 40.9725 35.1608V40.1318Z" fill="black"/>
<path fill-rule="evenodd" clip-rule="evenodd" d="M32 0C40.5475 0 48.5834 3.32863 54.6274 9.37263C60.6714 15.4166 64 23.4525 64 32C64 40.5475 60.6712 48.5835 54.6274 54.6275C48.5835 60.6715 40.5476 64 32 64C23.4524 64 15.4165 60.6714 9.3725 54.6274C3.3285 48.5834 0 40.5474 0 32C0 23.4526 3.3285 15.4166 9.3725 9.37263C15.4165 3.32863 23.4525 0 32 0ZM31.9984 2.57543C39.8576 2.57543 47.2463 5.63599 52.8036 11.1933C58.3609 16.7505 61.4215 24.1393 61.4215 31.9984C61.4215 39.8576 58.3608 47.2465 52.8036 52.8037C47.2465 58.361 39.8577 61.4215 31.9984 61.4215C24.1392 61.4215 16.7504 58.3609 11.1932 52.8036C5.63588 47.2463 2.57543 39.8575 2.57543 31.9984C2.57543 24.1394 5.63588 16.7505 11.1932 11.1933C16.7504 5.63599 24.1393 2.57543 31.9984 2.57543Z" fill="black"/>
</g>
<defs>
<clipPath id="clip0_2183_91">
<rect width="64" height="64" fill="white"/>
</clipPath>
</defs>
</svg>
