<svg width="17" height="14" viewBox="0 0 17 14" fill="none" xmlns="http://www.w3.org/2000/svg">
<path d="M15.4333 2.64465H12.5178L11.5044 0.813542C11.4091 0.648438 11.2329 0.546771 11.0422 0.546875H5.97556C5.7849 0.546771 5.60868 0.648438 5.51333 0.813542L4.48222 2.64465H1.56667C0.977569 2.64465 0.5 3.12222 0.5 3.71132V12.3869C0.5 12.976 0.977569 13.4535 1.56667 13.4535H15.4333C16.0224 13.4535 16.5 12.976 16.5 12.3869V3.71132C16.5 3.12222 16.0224 2.64465 15.4333 2.64465ZM8.5 11.4091C6.32031 11.4091 4.55333 9.64212 4.55333 7.46243C4.55333 5.28274 6.32031 3.51576 8.5 3.51576C10.6797 3.51576 12.4467 5.28274 12.4467 7.46243C12.4369 9.63806 10.6756 11.3994 8.5 11.4091Z" fill="#054EDB"/>
</svg>
