<svg width="62" height="64" viewBox="0 0 62 64" fill="none" xmlns="http://www.w3.org/2000/svg">
<path d="M40.2628 20.3551C34.0386 11.1982 25.7256 6.33135 21.3722 9.31333C20.8928 9.65091 20.4763 10.0698 20.1414 10.5511C20.1414 10.5863 10.0632 30.9819 10.0632 30.9819L4.43682 34.7938C3.57309 35.3801 2.83334 36.1308 2.25983 37.0031C1.68632 37.8754 1.29029 38.8522 1.09436 39.8775C0.898423 40.9029 0.90643 41.9569 1.11792 42.9792C1.32941 44.0014 1.74023 44.972 2.32693 45.8355L2.58012 46.2083C3.76602 47.9358 5.58517 49.1261 7.64301 49.5211C9.70084 49.9161 11.8314 49.4838 13.5726 48.3182L22.61 61.6316C23.9392 63.2702 26.4922 64.9019 29.643 62.9819C30.2012 62.62 30.6773 62.1451 31.0407 61.5879C31.4041 61.0306 31.6467 60.4035 31.7529 59.7467C31.8802 59.0935 31.8767 58.4216 31.7427 57.7697C31.6087 57.1178 31.3468 56.499 30.9722 55.9489L23.0109 44.2039C23.0109 44.2039 41.8311 42.7059 41.9014 42.6777C42.489 42.5547 43.0462 42.3156 43.5401 41.9744C45.7766 40.4553 46.5784 37.2694 45.8047 33.0004C45.1085 29.0689 43.1322 24.6171 40.2628 20.3551ZM4.62671 44.8228L4.37352 44.45C3.96873 43.8541 3.68545 43.1842 3.53988 42.4786C3.39432 41.7731 3.38933 41.0457 3.52521 40.3383C3.66109 39.6308 3.93516 38.9571 4.33174 38.3556C4.72833 37.7542 5.23963 37.2369 5.83638 36.8333L10.6962 33.5278L17.1102 42.9731L12.2504 46.2786C11.6544 46.6839 10.9843 46.9678 10.2785 47.114C9.57262 47.2602 8.84489 47.2658 8.13687 47.1306C7.42885 46.9954 6.75442 46.722 6.15213 46.326C5.54983 45.93 5.03148 45.4192 4.62671 44.8228ZM28.9467 57.3344C29.3311 57.9064 29.4729 58.6074 29.3411 59.2838C29.2092 59.9602 28.8145 60.5566 28.2434 60.9423C27.6704 61.3271 26.9682 61.4691 26.2907 61.3373C25.6132 61.2055 25.0155 60.8106 24.6285 60.239L15.6192 46.9678L19.2412 44.5063L20.1977 44.4289L28.9467 57.3344ZM19.4381 42.0166L12.4474 31.7204L19.1146 18.1256C19.7617 21.9445 21.6535 26.4808 24.6777 30.9327C27.7019 35.3845 31.2184 38.8166 34.5239 40.8281L19.4381 42.0166ZM40.1854 40.3779C36.8236 40.1599 31.352 36.3692 26.7173 29.5401C22.0825 22.7111 20.5775 16.2478 21.6113 13.0338C21.798 12.4305 22.1706 11.9016 22.6758 11.5227C23.181 11.1438 23.7931 10.9342 24.4245 10.9239C27.7581 10.9239 33.4337 14.7357 38.2021 21.7617C40.8887 25.7142 42.8439 29.8496 43.3784 33.4645C44.4263 40.3779 40.1854 40.3779 40.1854 40.3779Z" fill="black"/>
<path d="M31.4697 20.612C30.6083 20.4429 29.7217 20.4472 28.8619 20.6247C28.0021 20.8022 27.1863 21.1494 26.4623 21.6459C26.3288 21.7383 26.2149 21.856 26.1269 21.9924C26.039 22.1288 25.9787 22.2812 25.9497 22.4409C25.9206 22.6005 25.9233 22.7644 25.9575 22.923C25.9918 23.0817 26.057 23.232 26.1493 23.3655C26.2417 23.4989 26.3594 23.6129 26.4958 23.7008C26.6322 23.7888 26.7846 23.849 26.9443 23.8781C27.1039 23.9071 27.2678 23.9045 27.4264 23.8702C27.5851 23.8359 27.7354 23.7708 27.8689 23.6784C28.3274 23.3672 28.8428 23.1493 29.3856 23.0372C29.9283 22.9251 30.4878 22.9211 31.0322 23.0252C31.5765 23.1294 32.095 23.3398 32.558 23.6443C33.0211 23.9489 33.4196 24.3416 33.7308 24.8002C34.0421 25.2587 34.26 25.7741 34.372 26.3169C34.4841 26.8596 34.4882 27.4192 34.384 27.9635C34.2799 28.5078 34.0695 29.0263 33.765 29.4893C33.4604 29.9524 33.0676 30.3509 32.6091 30.6621C32.3929 30.8115 32.2301 31.0261 32.1446 31.2745C32.0592 31.523 32.0554 31.7923 32.134 32.0431C32.2126 32.2938 32.3694 32.5128 32.5815 32.668C32.7935 32.8232 33.0496 32.9065 33.3124 32.9057C33.5631 32.9104 33.809 32.8366 34.0157 32.6947C35.1096 31.9537 35.9589 30.9046 36.4561 29.6805C36.9533 28.4564 37.076 27.1122 36.8087 25.8183C36.5413 24.5244 35.8959 23.3389 34.9542 22.4121C34.0126 21.4853 32.817 20.8588 31.519 20.612H31.4697Z" fill="black"/>
<path d="M41.7833 11.7941H41.9029C42.2073 11.794 42.5009 11.681 42.7269 11.4771C42.9529 11.2732 43.0953 10.9927 43.1266 10.6899L44.0761 1.46265C44.0977 1.29949 44.0863 1.13365 44.0427 0.974949C43.9991 0.816246 43.9241 0.667902 43.8222 0.538694C43.7202 0.409487 43.5934 0.30204 43.4492 0.22271C43.305 0.143381 43.1463 0.0937816 42.9826 0.0768458C42.8189 0.0599099 42.6534 0.0759821 42.496 0.124111C42.3386 0.17224 42.1925 0.251449 42.0663 0.357051C41.94 0.462652 41.8362 0.592502 41.7611 0.738916C41.6859 0.885331 41.6408 1.04534 41.6286 1.20947L40.6862 10.4438C40.6527 10.7683 40.7495 11.0928 40.9552 11.346C41.161 11.5992 41.4588 11.7604 41.7833 11.7941Z" fill="black"/>
<path d="M57.6902 9.89339C57.5095 9.62099 57.2284 9.43113 56.9082 9.36525C56.5881 9.29937 56.2548 9.36281 55.9812 9.54174L47.4081 15.1681C47.1854 15.3151 47.0166 15.5304 46.927 15.7817C46.8374 16.033 46.8318 16.3066 46.9112 16.5612C46.9905 16.8159 47.1505 17.038 47.3669 17.1939C47.5834 17.3498 47.8446 17.4311 48.1114 17.4257C48.3602 17.4314 48.605 17.3629 48.8147 17.2288L57.3878 11.6024C57.6538 11.4153 57.8349 11.1305 57.8916 10.8103C57.9482 10.4901 57.8758 10.1604 57.6902 9.89339Z" fill="black"/>
<path d="M60.314 24.9144L50.3413 23.121C50.0195 23.0632 49.688 23.1355 49.4196 23.3222C49.1512 23.5088 48.9679 23.7944 48.9101 24.1162C48.8522 24.4379 48.9246 24.7695 49.1112 25.0379C49.2979 25.3063 49.5835 25.4896 49.9052 25.5474L59.8709 27.3408H60.089C60.4026 27.3499 60.7078 27.239 60.9424 27.0307C61.1769 26.8223 61.323 26.5322 61.3508 26.2197C61.3787 25.9073 61.2861 25.5959 61.0921 25.3494C60.8981 25.1029 60.6173 24.9397 60.307 24.8933L60.314 24.9144Z" fill="black"/>
</svg>
