<svg width="21" height="21" viewBox="0 0 21 21" fill="none" xmlns="http://www.w3.org/2000/svg">
<path fill-rule="evenodd" clip-rule="evenodd" d="M9.49906 1.96004C7.49933 1.96004 5.5815 2.75443 4.16748 4.16845C2.75345 5.58248 1.95906 7.50031 1.95906 9.50004C1.95906 11.4998 2.75345 13.4176 4.16748 14.8316C5.5815 16.2456 7.49933 17.04 9.49906 17.04C11.4899 17.04 13.3996 16.2527 14.8118 14.8504C14.8193 14.8424 14.827 14.8344 14.8348 14.8266C14.842 14.8195 14.8492 14.8125 14.8565 14.8057C16.2543 13.3942 17.0391 11.4876 17.0391 9.50004C17.0391 7.50031 16.2447 5.58248 14.8306 4.16845C13.4166 2.75443 11.4988 1.96004 9.49906 1.96004ZM16.8357 15.4722C18.203 13.7926 18.9591 11.6853 18.9591 9.50004C18.9591 6.99109 17.9624 4.5849 16.1883 2.81081C14.4142 1.03671 12.008 0.0400391 9.49906 0.0400391C6.99011 0.0400391 4.58393 1.03672 2.80983 2.81081C1.03574 4.5849 0.0390625 6.99109 0.0390625 9.50004C0.0390625 12.009 1.03574 14.4152 2.80983 16.1893C4.58393 17.9634 6.99011 18.96 9.49906 18.96C11.6876 18.96 13.7979 18.2017 15.4787 16.8305L19.3196 20.6783C19.6942 21.0535 20.302 21.054 20.6773 20.6795C21.0525 20.3049 21.0531 19.6971 20.6785 19.3218L16.8357 15.4722Z" fill="#171717"/>
</svg>
