<svg width="21" height="20" viewBox="0 0 21 20" fill="none" xmlns="http://www.w3.org/2000/svg">
<path fill-rule="evenodd" clip-rule="evenodd" d="M6.9375 17.3232C6.9375 16.4948 7.60907 15.8232 8.4375 15.8232C9.26593 15.8232 9.9375 16.4948 9.9375 17.3232C9.9375 18.1517 9.26593 18.8232 8.4375 18.8232C7.60907 18.8232 6.9375 18.1517 6.9375 17.3232Z" fill="white"/>
<path fill-rule="evenodd" clip-rule="evenodd" d="M15.5 17.3232C15.5 16.4948 16.1716 15.8232 17 15.8232C17.8284 15.8232 18.5 16.4948 18.5 17.3232C18.5 18.1517 17.8284 18.8232 17 18.8232C16.1716 18.8232 15.5 18.1517 15.5 17.3232Z" fill="white"/>
<path fill-rule="evenodd" clip-rule="evenodd" d="M0.5 1.35482C0.5 0.89458 0.873096 0.521484 1.33333 0.521484H4.66667C5.06386 0.521484 5.40584 0.801805 5.48379 1.19127L6.18369 4.68815H19.6667C19.915 4.68815 20.1504 4.79892 20.3087 4.99028C20.4671 5.18164 20.5318 5.43363 20.4852 5.67759L19.1507 12.6755C19.0364 13.251 18.7233 13.7679 18.2663 14.1359C17.8115 14.502 17.243 14.6973 16.6595 14.6882H8.57387C7.99031 14.6973 7.42184 14.502 6.96707 14.1359C6.51021 13.7681 6.1972 13.2514 6.08277 12.6762C6.08273 12.676 6.08282 12.6764 6.08277 12.6762L4.69066 5.72082C4.68501 5.69781 4.68032 5.67443 4.67663 5.65072L3.9836 2.18815H1.33333C0.873096 2.18815 0.5 1.81506 0.5 1.35482ZM6.51727 6.35482L7.71737 12.3508C7.75547 12.5426 7.85983 12.715 8.01218 12.8376C8.16453 12.9602 8.35516 13.0254 8.5507 13.0216L8.56667 13.0215H16.6667L16.6826 13.0216C16.8782 13.0254 17.0688 12.9602 17.2212 12.8376C17.3728 12.7155 17.4769 12.5442 17.5154 12.3535L18.6594 6.35482H6.51727Z" fill="white"/>
</svg>
