<svg width="24" height="24" viewBox="0 0 24 24" fill="none" xmlns="http://www.w3.org/2000/svg">
<path fill-rule="evenodd" clip-rule="evenodd" d="M7.72656 20.7883C7.72656 19.7942 8.53245 18.9883 9.52656 18.9883C10.5207 18.9883 11.3266 19.7942 11.3266 20.7883C11.3266 21.7824 10.5207 22.5883 9.52656 22.5883C8.53245 22.5883 7.72656 21.7824 7.72656 20.7883Z" fill="#171717"/>
<path fill-rule="evenodd" clip-rule="evenodd" d="M18 20.7883C18 19.7942 18.8059 18.9883 19.8 18.9883C20.7941 18.9883 21.6 19.7942 21.6 20.7883C21.6 21.7824 20.7941 22.5883 19.8 22.5883C18.8059 22.5883 18 21.7824 18 20.7883Z" fill="#171717"/>
<path fill-rule="evenodd" clip-rule="evenodd" d="M0 1.62549C0 1.0732 0.447715 0.625488 1 0.625488H5C5.47663 0.625488 5.88701 0.961874 5.98055 1.42923L6.82043 5.62549H23C23.298 5.62549 23.5805 5.75842 23.7705 5.98804C23.9605 6.21767 24.0381 6.52007 23.9823 6.81282L22.3809 15.2103C22.2437 15.9009 21.868 16.5212 21.3195 16.9628C20.7738 17.4021 20.0916 17.6365 19.3914 17.6255H9.68864C8.98837 17.6365 8.3062 17.4021 7.76048 16.9628C7.21225 16.5214 6.83663 15.9014 6.69933 15.2112C6.69927 15.2109 6.69938 15.2114 6.69933 15.2112L5.02879 6.86469C5.02201 6.83708 5.01638 6.80902 5.01195 6.78057L4.18032 2.62549H1C0.447715 2.62549 0 2.17777 0 1.62549ZM7.22073 7.62549L8.66084 14.8207C8.70656 15.0509 8.83179 15.2577 9.01461 15.4048C9.19743 15.552 9.42619 15.6302 9.66084 15.6257L9.68 15.6255H19.4L19.4192 15.6257C19.6538 15.6302 19.8826 15.552 20.0654 15.4048C20.2474 15.2583 20.3723 15.0528 20.4185 14.8239L21.7913 7.62549H7.22073Z" fill="#171717"/>
</svg>
