<svg width="14" height="13" viewBox="0 0 14 13" fill="none" xmlns="http://www.w3.org/2000/svg">
<path d="M6.402 0.539574C6.61321 -0.0053792 7.38428 -0.00537844 7.59549 0.539574L8.87159 3.83207C8.96239 4.06636 9.1819 4.22584 9.43278 4.2398L12.9585 4.436C13.542 4.46847 13.7803 5.20181 13.3273 5.57108L10.5903 7.80216C10.3955 7.96092 10.3117 8.21896 10.3759 8.46187L11.2788 11.8756C11.4282 12.4407 10.8044 12.8939 10.3132 12.5771L7.34558 10.6635C7.1344 10.5274 6.86309 10.5274 6.65191 10.6635L3.68425 12.5772C3.19306 12.8939 2.56925 12.4407 2.71869 11.8756L3.62159 8.46187C3.68584 8.21896 3.602 7.96092 3.40724 7.80216L0.670219 5.57108C0.217206 5.20181 0.45548 4.46847 1.03903 4.436L4.56472 4.2398C4.8156 4.22584 5.0351 4.06636 5.1259 3.83207L6.402 0.539574Z" fill="#FD9B08"/>
</svg>
