<svg width="16" height="15" viewBox="0 0 16 15" fill="none" xmlns="http://www.w3.org/2000/svg">
<path d="M7.402 1.53957C7.61321 0.994621 8.38428 0.994622 8.59549 1.53957L9.87159 4.83207C9.96239 5.06636 10.1819 5.22584 10.4328 5.2398L13.9585 5.436C14.542 5.46847 14.7803 6.20181 14.3273 6.57108L11.5903 8.80216C11.3955 8.96092 11.3117 9.21896 11.3759 9.46187L12.2788 12.8756C12.4282 13.4407 11.8044 13.8939 11.3132 13.5771L8.34558 11.6635C8.1344 11.5274 7.86309 11.5274 7.65191 11.6635L4.68425 13.5772C4.19306 13.8939 3.56925 13.4407 3.71869 12.8756L4.62159 9.46187C4.68584 9.21896 4.602 8.96092 4.40724 8.80216L1.67022 6.57108C1.21721 6.20181 1.45548 5.46847 2.03903 5.436L5.56472 5.2398C5.8156 5.22584 6.0351 5.06636 6.1259 4.83207L7.402 1.53957Z" stroke="#8B96B1"/>
</svg>
