<svg width="28" height="29" viewBox="0 0 28 29" fill="none" xmlns="http://www.w3.org/2000/svg">
<path d="M14 0.5C11.2311 0.5 8.52431 1.32109 6.22202 2.85942C3.91973 4.39776 2.12532 6.58426 1.06569 9.14243C0.00606598 11.7006 -0.271181 14.5155 0.269012 17.2313C0.809205 19.947 2.14258 22.4416 4.10051 24.3995C6.05845 26.3574 8.55301 27.6908 11.2687 28.231C13.9845 28.7712 16.7994 28.4939 19.3576 27.4343C21.9157 26.3747 24.1022 24.5803 25.6406 22.278C27.1789 19.9757 28 17.2689 28 14.5C28 12.6615 27.6379 10.841 26.9343 9.14243C26.2307 7.44387 25.1995 5.90052 23.8995 4.6005C22.5995 3.30048 21.0561 2.26925 19.3576 1.56569C17.659 0.862121 15.8385 0.5 14 0.5ZM18.452 21.7128C18.3998 21.8436 18.3201 21.9617 18.2185 22.0592C18.1168 22.1566 17.9954 22.2312 17.8626 22.2779C17.7297 22.3246 17.5883 22.3423 17.4481 22.3298C17.3078 22.3173 17.1718 22.275 17.0492 22.2056L13.2482 19.2516L10.8094 21.5028C10.7528 21.5446 10.6866 21.5715 10.6169 21.581C10.5472 21.5906 10.4762 21.5824 10.4104 21.5574L10.878 17.3728L10.892 17.3854L10.9018 17.3028C10.9018 17.3028 17.7408 11.0756 18.0194 10.811C18.3022 10.5464 18.2084 10.489 18.2084 10.489C18.2252 10.167 17.703 10.489 17.703 10.489L8.64081 16.3186L4.86781 15.0334C4.86781 15.0334 4.28821 14.8262 4.23361 14.3684C4.17621 13.9148 4.88601 13.6684 4.88601 13.6684L19.8898 7.7072C19.8898 7.7072 21.1232 7.1584 21.1232 8.0684L18.452 21.7128Z" fill="black"/>
</svg>
