<svg width="18" height="18" viewBox="0 0 18 18" fill="none" xmlns="http://www.w3.org/2000/svg">
<path d="M8.64425 0.863281C3.91051 0.863281 0.0761719 4.69762 0.0761719 9.43136C0.0761719 14.1651 3.91051 17.9994 8.64425 17.9994C13.378 17.9994 17.2123 14.1651 17.2123 9.43136C17.2123 4.69762 13.378 0.863281 8.64425 0.863281ZM12.1945 10.3544H8.64425C8.26556 10.3544 7.95786 10.0467 7.95786 9.66803V5.21833C7.95786 4.83964 8.26556 4.53194 8.64425 4.53194C9.02294 4.53194 9.33064 4.83964 9.33064 5.21833V9.00533H12.1945C12.5732 9.00533 12.8809 9.31303 12.8809 9.69172C12.8809 10.0468 12.5732 10.3544 12.1945 10.3544Z" fill="#054EDB"/>
</svg>
