<svg width="18" height="18" viewBox="0 0 18 18" fill="none" xmlns="http://www.w3.org/2000/svg">
<path d="M8.6462 0.863281C3.91246 0.863281 0.078125 4.69762 0.078125 9.43136C0.078125 14.1651 3.91246 17.9994 8.6462 17.9994C13.3799 17.9994 17.2142 14.1651 17.2142 9.43136C17.2142 4.69762 13.3799 0.863281 8.6462 0.863281ZM12.1965 10.3544H8.6462C8.26751 10.3544 7.95981 10.0467 7.95981 9.66803V5.21833C7.95981 4.83964 8.26751 4.53194 8.6462 4.53194C9.02489 4.53194 9.33259 4.83964 9.33259 5.21833V9.00533H12.1965C12.5752 9.00533 12.8829 9.31303 12.8829 9.69172C12.8829 10.0468 12.5752 10.3544 12.1965 10.3544Z" fill="#8B96B1"/>
</svg>
