<svg width="60" height="46" viewBox="0 0 60 46" fill="none" xmlns="http://www.w3.org/2000/svg">
<path d="M25.9948 31H28.6615C29.3684 30.999 30.0461 30.7178 30.546 30.2179C31.0459 29.718 31.3272 29.0403 31.3281 28.3333V25.6667C31.3273 24.9597 31.0461 24.2819 30.5462 23.7819C30.0463 23.282 29.3685 23.0008 28.6615 23H25.9948C25.2878 23.0008 24.61 23.282 24.1101 23.7819C23.6101 24.2819 23.3289 24.9597 23.3281 25.6667V28.3333C23.3291 29.0403 23.6103 29.718 24.1102 30.2179C24.6101 30.7178 25.2878 30.999 25.9948 31ZM25.9948 25.6667H28.6615L28.6641 28.3333H25.9948V25.6667Z" fill="#171717"/>
<path d="M7.33333 27.0026H12.6667C13.0203 27.0026 13.3594 26.8621 13.6095 26.6121C13.8595 26.362 14 26.0229 14 25.6693C14 25.3156 13.8595 24.9765 13.6095 24.7265C13.3594 24.4764 13.0203 24.3359 12.6667 24.3359H7.33333C6.97971 24.3359 6.64057 24.4764 6.39052 24.7265C6.14048 24.9765 6 25.3156 6 25.6693C6 26.0229 6.14048 26.362 6.39052 26.6121C6.64057 26.8621 6.97971 27.0026 7.33333 27.0026Z" fill="#171717"/>
<path d="M59.1406 23.6498L51.1406 10.3165C51.0222 10.119 50.8547 9.95556 50.6543 9.84213C50.454 9.72871 50.2276 9.66915 49.9974 9.66927H37.9974V3.0026C37.9966 2.29561 37.7154 1.6178 37.2154 1.11788C36.7155 0.617961 36.0377 0.336749 35.3307 0.335938H3.33073C2.62373 0.336749 1.94593 0.617961 1.44601 1.11788C0.946086 1.6178 0.664874 2.29561 0.664062 3.0026V36.3359C0.665015 37.0429 0.946272 37.7206 1.44616 38.2205C1.94605 38.7204 2.62378 39.0017 3.33073 39.0026H6.11739C6.42993 40.8666 7.39312 42.5595 8.83584 43.7804C10.2786 45.0014 12.1074 45.6714 13.9974 45.6714C15.8874 45.6714 17.7162 45.0014 19.1589 43.7804C20.6017 42.5595 21.5649 40.8666 21.8774 39.0026H39.4507C39.7633 40.8666 40.7265 42.5595 42.1692 43.7804C43.6119 45.0014 45.4407 45.6714 47.3307 45.6714C49.2207 45.6714 51.0496 45.0014 52.4923 43.7804C53.935 42.5595 54.8982 40.8666 55.2107 39.0026H57.9974C58.351 39.0026 58.6901 38.8621 58.9402 38.6121C59.1902 38.362 59.3307 38.0229 59.3307 37.6693V24.3359C59.331 24.0942 59.2652 23.8569 59.1406 23.6498ZM49.2422 12.3359L54.8422 21.6693H41.3307L37.9974 17.225V12.3359H49.2422ZM15.3307 3.00407L23.3307 3.005V11.5117L19.9271 9.80994C19.7419 9.71743 19.5377 9.66927 19.3307 9.66927C19.1237 9.66927 18.9195 9.71743 18.7343 9.80994L15.3307 11.5117V3.00407ZM3.33073 3.0026L12.6641 3.0038V13.6693C12.664 13.8966 12.7221 14.1201 12.8328 14.3186C12.9435 14.5172 13.1031 14.6841 13.2964 14.8036C13.4898 14.9231 13.7105 14.9912 13.9375 15.0014C14.1646 15.0116 14.3905 14.9636 14.5938 14.8619L19.3307 12.4935L24.0677 14.8619C24.271 14.9636 24.4969 15.0116 24.7239 15.0014C24.951 14.9912 25.1717 14.9231 25.365 14.8036C25.5584 14.6841 25.718 14.5172 25.8287 14.3186C25.9393 14.1201 25.9974 13.8966 25.9974 13.6693V3.0054L35.3307 3.00647V36.3359H21.8867C21.8815 36.3051 21.8689 36.2773 21.8633 36.2466C21.7906 35.8451 21.687 35.4498 21.5533 35.0643C21.529 34.9942 21.5033 34.9257 21.477 34.8563C21.3354 34.4771 21.1651 34.1093 20.9677 33.7559C20.939 33.7049 20.9066 33.6569 20.8769 33.6065C20.6648 33.2437 20.4247 32.898 20.1587 32.5727L20.1358 32.5474C19.8657 32.2272 19.5711 31.9285 19.2546 31.6541C19.2191 31.623 19.1865 31.5898 19.1506 31.5594C18.8388 31.2984 18.5076 31.0614 18.1599 30.8505C18.1013 30.8145 18.0441 30.7782 17.9845 30.7438C17.6358 30.5425 17.2724 30.368 16.8974 30.2217C16.8307 30.1958 16.7649 30.1726 16.6974 30.1486C16.3073 30.0061 15.9065 29.8946 15.4989 29.8153C15.4455 29.8053 15.3922 29.7999 15.3389 29.7909C14.451 29.6284 13.5411 29.6284 12.6533 29.7909C12.5999 29.7999 12.5466 29.8053 12.4933 29.8153C12.0855 29.8946 11.6847 30.0061 11.2945 30.1486C11.2278 30.1726 11.1611 30.1958 11.0958 30.2215C10.7206 30.3679 10.3571 30.5424 10.0083 30.7438C9.94873 30.7783 9.89153 30.8146 9.83286 30.8505C9.48519 31.0614 9.15402 31.2984 8.84219 31.5594C8.80633 31.5898 8.77366 31.623 8.73819 31.6541C8.42168 31.9285 8.12706 32.2272 7.857 32.5474L7.83406 32.5727C7.56779 32.8983 7.3275 33.2442 7.1154 33.6074C7.0858 33.6573 7.05393 33.7049 7.02539 33.7554C6.82832 34.1088 6.65849 34.4767 6.51739 34.8559C6.49073 34.9251 6.46553 34.9937 6.44126 35.0638C6.30757 35.4493 6.20393 35.8446 6.13126 36.2461C6.12566 36.2767 6.11299 36.3046 6.1078 36.3354H3.33073V3.0026ZM13.9974 43.0026C12.9426 43.0026 11.9114 42.6898 11.0344 42.1038C10.1573 41.5177 9.4737 40.6848 9.07004 39.7103C8.66637 38.7357 8.56075 37.6634 8.76654 36.6288C8.97233 35.5942 9.48028 34.6439 10.2262 33.898C10.972 33.1522 11.9223 32.6442 12.9569 32.4384C13.9915 32.2326 15.0638 32.3382 16.0384 32.7419C17.0129 33.1456 17.8459 33.8292 18.4319 34.7062C19.0179 35.5833 19.3307 36.6144 19.3307 37.6693C19.3293 39.0833 18.767 40.4391 17.7671 41.439C16.7672 42.4389 15.4115 43.0012 13.9974 43.0026ZM47.3307 43.0026C46.2759 43.0026 45.2447 42.6898 44.3677 42.1038C43.4906 41.5177 42.807 40.6848 42.4034 39.7103C41.9997 38.7357 41.8941 37.6634 42.0999 36.6288C42.3057 35.5942 42.8136 34.6439 43.5595 33.898C44.3054 33.1522 45.2557 32.6442 46.2902 32.4384C47.3248 32.2326 48.3972 32.3382 49.3717 32.7419C50.3462 33.1456 51.1792 33.8292 51.7652 34.7062C52.3513 35.5833 52.6641 36.6144 52.6641 37.6693C52.6627 39.0833 52.1003 40.4391 51.1004 41.439C50.1005 42.4389 48.7448 43.0012 47.3307 43.0026ZM56.6641 36.3359H55.2201C55.2149 36.3051 55.2022 36.2773 55.1966 36.2466C55.1239 35.8451 55.0203 35.4498 54.8866 35.0643C54.8623 34.9942 54.8366 34.9257 54.8103 34.8563C54.6687 34.4771 54.4985 34.1093 54.301 33.7559C54.2723 33.7049 54.2399 33.6569 54.2102 33.6065C53.9982 33.2437 53.7581 32.898 53.4921 32.5727L53.4691 32.5474C53.1991 32.2272 52.9044 31.9285 52.5879 31.6541C52.5525 31.623 52.5198 31.5898 52.4839 31.5594C52.1721 31.2984 51.8409 31.0614 51.4933 30.8505C51.4346 30.8145 51.3774 30.7782 51.3178 30.7438C50.9692 30.5425 50.6058 30.368 50.2307 30.2217C50.1647 30.1958 50.0982 30.1726 50.0314 30.1486C49.6413 30.0061 49.2405 29.8946 48.8329 29.8153C48.7795 29.8053 48.7262 29.7999 48.6729 29.7909C47.785 29.6284 46.8751 29.6284 45.9873 29.7909C45.9339 29.7999 45.8806 29.8053 45.8273 29.8153C45.4195 29.8946 45.0187 30.0061 44.6285 30.1486C44.5618 30.1726 44.4951 30.1958 44.4298 30.2215C44.0546 30.3679 43.6911 30.5424 43.3423 30.7438C43.2827 30.7783 43.2255 30.8146 43.1669 30.8505C42.8192 31.0614 42.488 31.2984 42.1762 31.5594C42.1403 31.5898 42.1077 31.623 42.0722 31.6541C41.7557 31.9285 41.4611 32.2272 41.191 32.5474L41.1681 32.5727C40.9018 32.8983 40.6615 33.2442 40.4494 33.6074C40.4198 33.6573 40.3879 33.7049 40.3594 33.7554C40.1617 34.1089 39.9913 34.477 39.8497 34.8565C39.823 34.9257 39.7978 34.9942 39.7735 35.0643C39.6398 35.4498 39.5362 35.8451 39.4635 36.2466C39.4579 36.2773 39.4453 36.3051 39.4401 36.3359H37.9974V21.6693L39.5974 23.8026C39.7215 23.9683 39.8825 24.1028 40.0677 24.1953C40.2528 24.2879 40.457 24.3361 40.6641 24.3359H56.4422L56.6641 24.7057V36.3359Z" fill="#171717"/>
</svg>
