<svg width="20" height="20" viewBox="0 0 20 20" fill="none" xmlns="http://www.w3.org/2000/svg">
<g clip-path="url(#clip0_8229_3439)">
<path d="M15.3018 9.75C14.0682 11.3248 12.1785 12.3222 10 12.3222C7.87402 12.3222 5.93176 11.3248 4.69816 9.75C1.83727 11.561 0 14.7106 0 18.2014C0 19.1463 0.734908 19.855 1.65354 19.855H18.3202C19.2651 19.8812 20 19.0938 20 18.2014C20 14.7106 18.1627 11.5348 15.3018 9.75Z" fill="#8B96B1"/>
<path d="M10.0006 0.144531C7.00845 0.144531 4.59375 2.58548 4.59375 5.55135C4.59375 8.54348 7.0347 10.9582 10.0006 10.9582C12.9665 10.9582 15.4074 8.56973 15.4074 5.55135C15.4074 2.53298 12.9927 0.144531 10.0006 0.144531Z" fill="#8B96B1"/>
</g>
<defs>
<clipPath id="clip0_8229_3439">
<rect width="20" height="20" fill="white"/>
</clipPath>
</defs>
</svg>
