<svg width="28" height="29" viewBox="0 0 28 29" fill="none" xmlns="http://www.w3.org/2000/svg">
<path d="M14 0.5C6.26828 0.5 0 6.76799 0 14.5C0 22.232 6.26828 28.5 14 28.5C21.7317 28.5 28 22.232 28 14.5C28 6.76799 21.7317 0.5 14 0.5ZM21.1015 16.0141C21.7541 16.6515 22.4444 17.2513 23.0302 17.9545C23.2897 18.2656 23.5343 18.5873 23.7205 18.9491C23.9863 19.465 23.7463 20.0307 23.2845 20.0613L20.4164 20.0608C19.6756 20.1221 19.0861 19.8233 18.5891 19.3169C18.1924 18.9133 17.8243 18.4822 17.4422 18.0648C17.2861 17.8935 17.1217 17.7322 16.9258 17.6054C16.5348 17.351 16.195 17.4289 15.971 17.8374C15.7427 18.253 15.6906 18.7136 15.6688 19.1762C15.6376 19.8525 15.4337 20.0292 14.7551 20.061C13.3051 20.1289 11.9293 19.9089 10.6506 19.1779C9.52258 18.5331 8.64949 17.6231 7.8887 16.5928C6.4072 14.5842 5.27259 12.3797 4.25314 10.1119C4.02369 9.60122 4.19155 9.32795 4.75499 9.31735C5.69109 9.2993 6.62719 9.3016 7.56329 9.31649C7.94427 9.32251 8.19634 9.54049 8.34271 9.89998C8.84857 11.1446 9.46873 12.3287 10.2459 13.427C10.453 13.7194 10.6643 14.011 10.9654 14.2176C11.2977 14.4456 11.5509 14.3702 11.7076 13.9993C11.8078 13.7635 11.8511 13.5115 11.8729 13.2588C11.9473 12.3935 11.9562 11.5284 11.8273 10.6665C11.7471 10.1271 11.4438 9.77881 10.9061 9.67684C10.6323 9.62499 10.6724 9.52359 10.8056 9.36719C11.0367 9.09679 11.2533 8.9295 11.6861 8.9295L14.9267 8.92893C15.4374 9.02919 15.552 9.25834 15.6213 9.7728L15.6241 13.374C15.6181 13.5731 15.7241 14.1631 16.0816 14.2935C16.368 14.388 16.5571 14.1583 16.7284 13.977C17.5055 13.1523 18.0592 12.1789 18.555 11.1715C18.7739 10.7272 18.9627 10.2675 19.146 9.80689C19.2823 9.4663 19.4943 9.29873 19.8787 9.30446L22.9992 9.30818C23.0912 9.30818 23.1846 9.30904 23.2757 9.3248C23.8016 9.41474 23.9457 9.64103 23.783 10.1541C23.5269 10.9601 23.0293 11.6315 22.5429 12.3047C22.0216 13.0254 21.4656 13.7209 20.9494 14.4447C20.4751 15.1064 20.5126 15.4395 21.1015 16.0141Z" fill="black"/>
</svg>
