<svg width="28" height="29" viewBox="0 0 28 29" fill="none" xmlns="http://www.w3.org/2000/svg">
<path fill-rule="evenodd" clip-rule="evenodd" d="M14 28.5C21.732 28.5 28 22.232 28 14.5C28 6.76801 21.732 0.5 14 0.5C6.26801 0.5 0 6.76801 0 14.5C0 22.232 6.26801 28.5 14 28.5ZM21.5056 9.75375C21.7662 10.0019 21.9537 10.3109 22.0494 10.6497C22.4 11.8963 22.4 14.5001 22.4 14.5001C22.4 14.5001 22.4 17.104 22.0494 18.3506C21.8563 19.039 21.2881 19.5811 20.5644 19.7648C19.2538 20.1001 14 20.1001 14 20.1001C14 20.1001 8.74626 20.1001 7.43563 19.7648C6.71376 19.5811 6.14376 19.039 5.95063 18.3506C5.60001 17.104 5.60001 14.5001 5.60001 14.5001C5.60001 14.5001 5.60001 11.8963 5.95063 10.6479C6.04596 10.309 6.23336 9.99986 6.49402 9.75161C6.75468 9.50337 7.07942 9.32473 7.43563 9.23363C8.74626 8.90013 14 8.90013 14 8.90013C14 8.90013 19.2538 8.90013 20.5644 9.23542C20.9204 9.32681 21.245 9.50555 21.5056 9.75375ZM12.3313 12.1103V16.8899L16.6813 14.4823L12.3313 12.1103Z" fill="black"/>
</svg>
